<ttFont>
          <CharString index="0">
            85 348 rmoveto
            -212 147 -152 225 153 101 56 56 64 vhcurveto
            -8 vlineto
            -99 41 -5 76 vhcurveto
            232 745 hlineto
            315 -134 116 -360 -203 -215 -75 -50 -83 vhcurveto
            75 -218 rlineto
            47 102 159 34 83 hhcurveto
            171 37 -24 -99 hvcurveto
            -69 vlineto
            -143 -184 -9 -60 -139 hvcurveto
            -126 -54 -79 -101 -134 vvcurveto
            return
          </CharString>
          <CharString index="1">
            rmoveto
            -9 -484 263 -310 449 9 417 8 286 231 10 540 9 483 -260 304 -432 -12 -423 -12 -300 -217 -10 -540 rrcurveto
            710 -506 rmoveto
            -214 -104 207 288 373 150 121 184 203 95 -193 -285 -367 -120 -144 -194 hvcurveto
            return
          </CharString>
          <CharString index="2">
            121 100 95 112 113 -83 78 -121 -120 -103 -94 -112 -112 87 -80 119 hvcurveto
            return
          </CharString>
          <CharString index="3">
            -179 rmoveto
            -50 vlineto
            24 -14 29 -54 -53 vvcurveto
            -70 -8 -42 -15 -26 vhcurveto
            -27 vlineto
            165 -45 rlineto
            38 18 94 109 161 vvcurveto
            107 -64 71 -35 10 vhcurveto
            return
          </CharString>
          <CharString index="4">
            56 -91 -130 28 -165 hhcurveto
            -336 -1 -190 -121 -248 vvcurveto
            -146 83 -108 145 -58 vhcurveto
            -142 -61 -43 -96 -1 -75 -1 -73 31 -64 62 -34 rrcurveto
            -113 -51 -58 -90 -100 vvcurveto
            566 788 rmoveto
            -117 -57 64 107 136 71 40 107 114 57 -58 -119 -135 -71 -35 -104 hvcurveto
            -194 -721 rmoveto
            50 16 38 19 27 vhcurveto
            243 hlineto
            187 30 -70 -88 -122 -111 -47 -150 -192 -42 110 102 hvcurveto
            return
          </CharString>
          <CharString index="5">
            rmoveto
            -37 59 204 -57 218 hhcurveto
            358 197 178 273 239 -156 116 -262 118 hvcurveto
            -184 84 -79 50 92 vvcurveto
            77 66 51 144 133 143 -49 -48 61 vhcurveto
            59 286 rlineto
            32 -55 -146 55 -228 hhcurveto
            -322 -221 -140 -277 -245 163 -135 194 -92 hvcurveto
            227 -108 82 -38 -97 vvcurveto
            return
          </CharString>
          <CharString index="6">
            rmoveto
            116 89 89 110 110 -71 73 -117 -115 -93 -88 -110 -109 77 -75 114 hvcurveto
            -541 hmoveto
            116 89 89 110 110 -72 73 -117 -114 -93 -88 -110 -109 77 -75 114 hvcurveto
            return
          </CharString>
          <CharString index="7">
            rmoveto
            -485 291 -284 454 345 98 97 5 119 vhcurveto
            768 -565 -272 vlineto
            217 -16 rlineto
            -266 vlineto
            -20 -49 -65 -12 -106 hhcurveto
            -228 -122 217 295 287 150 173 264 204 128 -39 -41 80 hvcurveto
            10 318 rlineto
            22 -115 -99 38 -223 hhcurveto
            -440 -348 -222 -563 hvcurveto
            return
          </CharString>
          <CharString index="8">
            -79 callgsubr
            404 hlineto
            -534 1532 rlineto
            -434 hlineto
            24 -982 rmoveto
            135 477 51 197 50 -197 141 -477 rlineto
            return
          </CharString>
          <CharString index="9">
            17 callsubr
            87 80 111 114 -70 62 -121 -120 -90 -78 -112 -112 74 -65 119 hvcurveto
            return
          </CharString>
          <CharString index="10">
            rmoveto
            -471 280 -303 503 178 117 47 33 79 vhcurveto
            -1 312 rlineto
            -42 -51 -149 -56 -130 hhcurveto
            -284 -147 202 301 294 182 161 233 183 91 -59 -29 43 hvcurveto
            50 329 rlineto
            19 -92 -95 42 -211 hhcurveto
            -435 -344 -265 -515 hvcurveto
            return
          </CharString>
          <CharString index="11">
            382 19 rmoveto
            81 46 28 43 17 vhcurveto
            40 19 88 15 72 1 rrcurveto
            -268 vlineto
            -22 -21 -64 -26 -59 hhcurveto
            -75 -70 47 108 hvcurveto
            return
          </CharString>
          <CharString index="12">
            rmoveto
            241 145 170 232 -2 hvcurveto
            -224 hlineto
            -48 -8 -14 -111 -138 hhcurveto
            -143 -11 111 48 -5 hvcurveto
            -227 hlineto
            -232 -3 135 -170 254 hhcurveto
            endchar
          </CharString>
          <CharString index="13">
            rmoveto
            223 193 224 -193 178 116 -285 306 rlineto
            -234 hlineto
            return
          </CharString>
          <CharString index="14">
            rmoveto
            -209 182 -133 405 -3 vhcurveto
            324 -2 324 144 302 vvcurveto
            182 -95 164 -356 vhcurveto
            -226 hlineto
            -108 -37 19 55 26 10 31 26 24 hvcurveto
            -4 36 38 -2 40 hhcurveto
            372 163 140 228 hvcurveto
            return
          </CharString>
          <CharString index="15">
            1146 21 -21 897 243 0 -20 159 398 -245 22 callsubr
            76 33 callsubr
            hintmask 1010000010000000
            1921 hmoveto
            -68 callgsubr
            hintmask 0001000100000000
            -89 callgsubr
            hintmask 1100110000000000
            -1888 -53 callgsubr
            hintmask 1100101000000000
            881 -897 -103 callgsubr
            endchar
          </CharString>
          <CharString index="16">
            -89 callsubr
            endchar
          </CharString>
          <CharString index="17">
            rmoveto
            169 158 -104 94 -155 212 -84 139 rlinecurve
            -244 -189 70 -156 256 -213 92 -45 rlinecurve
            endchar
          </CharString>
          <CharString index="18">
            rmoveto
            335 hlineto
            160 561 44 214 43 -214 166 -561 rlineto
            325 hlineto
            359 1156 rlineto
            -344 hlineto
            -108 -460 -60 -300 -65 299 -134 461 rlineto
            -333 hlineto
            -135 -461 -69 -299 -61 299 -117 461 rlineto
            -361 hlineto
            return
          </CharString>
          <CharString index="19">
            59 44 147 147 280 vvcurveto
            203 -101 134 -86 32 vhcurveto
            -202 -152 rlineto
            -79 vlineto
            37 -21 52 -87 -126 vvcurveto
            -109 -25 -100 -31 -41 vhcurveto
            -29 vlineto
            return
          </CharString>
          <CharString index="20">
            rmoveto
            234 hlineto
            282 291 -175 115 -224 -167 -223 167 -176 -115 rlineto
            return
          </CharString>
          <CharString index="21">
            rmoveto
            173 132 -40 40 -193 203 -27 79 rlinecurve
            -262 -130 79 -122 187 -176 83 -26 rlinecurve
            return
          </CharString>
          <CharString index="22">
            -82 callsubr
            endchar
          </CharString>
          <CharString index="23">
            86 593 -105 callgsubr
            return
          </CharString>
          <CharString index="24">
            1534 -100 callgsubr
            return
          </CharString>
          <CharString index="25">
            1022 -84 callgsubr
            return
          </CharString>
          <CharString index="26">
            63 68 86 171 209 vvcurveto
            147 -29 93 -56 49 vhcurveto
            -254 -89 -11 -67 rlineto
            37 -40 24 -81 -99 vvcurveto
            1 -125 -12 -99 -14 -61 8 -35 rcurveline
            endchar
          </CharString>
          <CharString index="27">
            -616 21 -61 callgsubr
            159 18 callgsubr
            142 -24 callsubr
            hintmask 11001000
            159 hmoveto
            -68 callgsubr
            hintmask 00110000
            -89 callgsubr
            endchar
          </CharString>
          <CharString index="28">
            rmoveto
            188 177 91 12 callsubr
            106 -222 hhcurveto
            -177 -187 -79 -217 -5 hvcurveto
            -192 -3 134 -122 229 hhcurveto
            3 169 rmoveto
            -92 -66 58 84 104 75 33 83 -1 hvcurveto
            92 -1 68 -52 -90 vvcurveto
            -105 -64 -31 -96 1 vhcurveto
            return
          </CharString>
          <CharString index="29">
            rmoveto
            223 hlineto
            304 369 -177 114 -239 -227 -240 227 -176 -113 rlineto
            return
          </CharString>
          <CharString index="30">
            537 -16 rmoveto
            191 103 83 51 51 hvcurveto
            -80 vlineto
            -34 18 -20 37 vhcurveto
            284 1678 -370 -412 hlineto
            3 -122 rlineto
            15 -44 -64 13 -80 hhcurveto
            -349 -232 -239 -386 -370 209 -177 243 hvcurveto
            return
          </CharString>
          <CharString index="31">
            127 277 rmoveto
            -118 -74 75 213 1 hvcurveto
            235 1 91 116 130 hhcurveto
            66 59 -9 -23 31 hvcurveto
            -555 vlineto
            -27 -40 -76 -25 -71 hhcurveto
            return
          </CharString>
          <CharString index="32">
            -43 -16 228 -207 -21 544 178 192 262 return
          </CharString>
          <CharString index="33">
            138 638 -101 callgsubr
            return
          </CharString>
          <CharString index="34">
            120 116 31 hvcurveto
            -127 136 rlineto
            return
          </CharString>
          <CharString index="35">
            hmoveto
            655 213 hlineto
            -98 51 -162 219 338 vvcurveto
            329 165 132 204 188 162 -134 -329 -337 -140 -218 -91 -51 vhcurveto
            -213 638 251 -315 vlineto
            161 124 127 227 3 248 rrcurveto
            486 5 -305 209 -433 hhcurveto
            -385 -360 -192 -499 -8 hvcurveto
            -3 -256 146 -226 150 -121 rrcurveto
            -304 hlineto
            endchar
          </CharString>
          <CharString index="36">
            rmoveto
            83 -191 171 -8 326 139 57 295 rlinecurve
            29 144 -10 176 199 vvcurveto
            909 -384 -914 vlineto
            -259 -1 -131 -31 -108 vhcurveto
            -42 -149 -99 -63 -99 -39 rrcurveto
            return
          </CharString>
          <CharString index="37">
            -90 -62 -39 -144 vhcurveto
            -160 -1 -168 56 -74 42 rrcurveto
            return
          </CharString>
          <CharString index="38">
            185 hmoveto
            384 1522 -384 hlineto
            return
          </CharString>
          <CharString index="39">
            rmoveto
            134 hlineto
            117 134 -15 -1 148 hvcurveto
            hintmask 00101010
            488 -2 283 298 519 vvcurveto
            468 -232 271 -515 vhcurveto
            hintmask 01010010
            -143 -198 -16 -76 hhcurveto
            -140 hlineto
            383 -1242 rmoveto
            hintmask 10001010
            970 -70 callgsubr
            hintmask 10010010
            -68 -68 4 11 -38 hvcurveto
            endchar
          </CharString>
          <CharString index="40">
            32 callgsubr
            80 26 53 hhcurveto
            108 2 34 -52 -165 vvcurveto
            -652 368 721 vlineto
            25 -1 25 -1 23 vhcurveto
            34 39 67 39 70 hhcurveto
            110 2 34 -50 -166 vvcurveto
            -653 371 719 vlineto
            334 -138 106 -229 -1 vhcurveto
            -174 1 -143 -82 -64 -51 -56 97 -95 38 -134 -3 -149 -3 -146 -73 -77 -64 rrcurveto
            return
          </CharString>
          <CharString index="41">
            -109 -7 131 -198 hhcurveto
            -167 -114 -116 -115 -31 hvcurveto
            endchar
          </CharString>
          <CharString index="42">
            rmoveto
            238 1 219 169 304 vvcurveto
            261 -127 210 -294 -2 vhcurveto
            -239 -1 -219 -169 -305 vvcurveto
            -261 131 -209 291 2 vhcurveto
            206 -589 rmoveto
            282 hlineto
            557 1530 rlineto
            -283 hlineto
            -747 -708 rmoveto
            -98 -56 98 147 145 56 88 102 98 56 -97 -148 -145 -56 -88 -102 hvcurveto
            return
          </CharString>
          <CharString index="43">
            159 64 rmoveto
            -23 28 266 -62 239 hhcurveto
            366 238 247 386 370 -209 174 -243 -168 -98 -64 -51 -56 hvcurveto
            8 209 rlineto
            411 15 callsubr
            371 -1399 rmoveto
            559 vlineto
            27 35 74 33 78 hhcurveto
            113 80 -65 -226 -1 hvcurveto
            -232 -1 -95 -130 -127 hhcurveto
            -80 -55 10 24 -21 hvcurveto
            return
          </CharString>
          <CharString index="44">
            -85 -16 262 237 185 249 239 return
          </CharString>
          <CharString index="45">
            55 -516 200 327 263 149 194 268 255 -176 191 return
          </CharString>
          <CharString index="46">
            773 -358 rmoveto
            -260 130 -209 291 1 vhcurveto
            239 1 219 169 305 vvcurveto
            261 -128 209 -294 -2 vhcurveto
            -238 -1 -219 -168 -306 vvcurveto
            283 11 rmoveto
            145 56 88 102 98 55 -98 -147 -145 -55 -88 -102 -98 -56 97 148 vhcurveto
            endchar
          </CharString>
          <CharString index="47">
            33 -4 32 -7 29 vhcurveto
            184 255 -128 hlineto
            -87 -69 -37 -32 -38 hvcurveto
            return
          </CharString>
          <CharString index="48">
            rmoveto
            188 177 78 12 callsubr
            93 -222 hhcurveto
            -177 -188 -66 -216 -4 hvcurveto
            -193 -3 134 -109 229 hhcurveto
            3 170 rmoveto
            -92 -66 44 84 104 75 20 83 -1 hvcurveto
            92 -1 68 -39 -89 vvcurveto
            -106 -64 -17 -96 1 vhcurveto
            endchar
          </CharString>
          <CharString index="49">
            449 vlineto
            13 47 59 5 56 hhcurveto
            200 48 -107 -114 -140 -68 -113 -155 hvcurveto
            return
          </CharString>
          <CharString index="50">
            rmoveto
            -329 175 -246 377 147 148 51 65 63 vhcurveto
            return
          </CharString>
          <CharString index="51">
            5 -21 1156 -20 return
          </CharString>
          <CharString index="52">
            -77 146 hhcurveto
            113 78 24 43 67 6 callgsubr
            return
          </CharString>
          <CharString index="53">
            239 -16 300 1238 -20 return
          </CharString>
          <CharString index="54">
            rmoveto
            279 193 hlineto
            -6 205 157 -5 rlineto
            222 271 -222 hlineto
            -157 -5 6 203 rlineto
            200 -279 -200 vlineto
            6 -203 -160 5 rlineto
            -218 -271 218 hlineto
            160 5 -6 -205 rlineto
            endchar
          </CharString>
          <CharString index="55">
            -98 callgsubr
            endchar
          </CharString>
          <CharString index="56">
            -35 95 rlineto
            -903 hlineto
            -2 -252 rlineto
            450 hlineto
            -60 -91 -458 -714 rlineto
            return
          </CharString>
          <CharString index="57">
            -284 -308 rlineto
            endchar
          </CharString>
          <CharString index="58">
            rmoveto
            97 55 207 224 67 131 -215 147 rcurveline
            -18 -26 -206 -325 -76 -102 rrcurveto
            661 -104 rmoveto
            return
          </CharString>
          <CharString index="59">
            384 1228 406 294 -1197 -294 407 hlineto
            endchar
          </CharString>
          <CharString index="60">
            371 698 hlineto
            47 43 79 61 137 hhcurveto
            68 35 -16 -11 19 hvcurveto
            return
          </CharString>
          <CharString index="61">
            -23 -181 rlineto
            -16 27 103 -12 61 hhcurveto
            return
          </CharString>
          <CharString index="62">
            hlineto
            -106 -58 -127 -104 5 -146 31 callsubr
            135 -55 callsubr
            -38 -8 -34 hhcurveto
            -71 -54 27 65 -4 hvcurveto
            -6 90 74 65 95 52 rrcurveto
            return
          </CharString>
          <CharString index="63">
            371 189 hlineto
            -3 134 108 117 260 -440 rlineto
            411 hlineto
            -432 699 405 441 rlineto
            -421 hlineto
            -340 -420 12 312 rlineto
            629 15 callsubr
            endchar
          </CharString>
          <CharString index="64">
            -57 201 rlineto
            -30 -55 -139 -28 -109 hhcurveto
            -167 -102 65 172 -14 hvcurveto
            664 hlineto
            6 49 5 74 83 vvcurveto
            366 -2 -231 97 -242 hhcurveto
            -133 -113 -34 -60 -88 hvcurveto
            return
          </CharString>
          <CharString index="65">
            -255 rmoveto
            -46 callsubr
            hintmask 11101000
            145 118 77 171 2 hvcurveto
            return
          </CharString>
          <CharString index="66">
            75 rmoveto
            46 -8 58 -98 -89 vvcurveto
            -132 -42 -101 -39 -29 vhcurveto
            -26 vlineto
            132 -104 rlineto
            152 58 123 217 226 vvcurveto
            117 -53 169 -114 43 vhcurveto
            -263 -136 rlineto
            return
          </CharString>
          <CharString index="67">
            -39 callgsubr
            17 callgsubr
            return
          </CharString>
          <CharString index="68">
            266 -132 263 -161 -20 hstemhm
            return
          </CharString>
          <CharString index="69">
            -218 -133 -16 -107 hhcurveto
            -131 hlineto
            380 -720 rmoveto
            return
          </CharString>
          <CharString index="70">
            -98 -486 -21 528 -61 callgsubr
            return
          </CharString>
          <CharString index="71">
            -9 122 rlineto
            -338 hlineto
            return
          </CharString>
          <CharString index="72">
            70 -809 rlineto
            366 hlineto
            -194 1522 rlineto
            -499 hlineto
            -164 -781 -55 -355 -69 355 -185 781 rlineto
            -513 hlineto
            endchar
          </CharString>
          <CharString index="73">
            -29 callsubr
            endchar
          </CharString>
          <CharString index="74">
            -4 234 -209 -21 589 233 -114 231 361 232 hstemhm
            99 283 312 284 331 283 311 285 return
          </CharString>
          <CharString index="75">
            21 -21 897 243 292 252 return
          </CharString>
          <CharString index="76">
            -9 callgsubr
            -37 -8 -35 hhcurveto
            -71 -50 23 65 -4 hvcurveto
            return
          </CharString>
          <CharString index="77">
            -145 -41 156 -211 hhcurveto
            -183 -140 -161 -74 -22 hvcurveto
            return
          </CharString>
          <CharString index="78">
            889 287 -502 1235 -387 hlineto
            return
          </CharString>
          <CharString index="79">
            -399 -180 -264 -333 return
          </CharString>
          <CharString index="80">
            rmoveto
            619 238 -619 hlineto
            return
          </CharString>
          <CharString index="81">
            9 callsubr
            hintmask 11110000
            -31 -26 3 11 -17 hvcurveto
            endchar
          </CharString>
          <CharString index="82">
            rmoveto
            -87 callgsubr
            return
          </CharString>
          <CharString index="83">
            427 -410 372 return
          </CharString>
          <CharString index="84">
            840 hstemhm
            113 389 -300 300 return
          </CharString>
          <CharString index="85">
            -98 callsubr
            endchar
          </CharString>
          <CharString index="86">
            -6 callsubr
            383 631 522 -631 380 1522 -380 -617 -522 617 -383 hlineto
            return
          </CharString>
          <CharString index="87">
            -87 callsubr
            endchar
          </CharString>
          <CharString index="88">
            -318 1017 291 -639 351 444 277 -444 319 578 284 -1220 vlineto
            return
          </CharString>
          <CharString index="89">
            267 -133 264 -243 -21 hstemhm
            return
          </CharString>
          <CharString index="90">
            945 260 -492 hlineto
            66 92 rlineto
            return
          </CharString>
          <CharString index="91">
            -16 277 -256 -21 916 256 return
          </CharString>
          <CharString index="92">
            0 -16 294 958 302 return
          </CharString>
          <CharString index="93">
            -21 284 266 return
          </CharString>
          <CharString index="94">
            52 626 278 hstem
            254 850 vstem
            254 626 rmoveto
            850 278 -850 hlineto
            endchar
          </CharString>
          <CharString index="95">
            -629 28 callgsubr
            1647 -20 return
          </CharString>
          <CharString index="96">
            hstemhm
            86 1158 return
          </CharString>
          <CharString index="97">
            hvcurveto
            170 vlineto
            -12 return
          </CharString>
          <CharString index="98">
            365 vlineto
            10 18 84 3 28 hhcurveto
            169 93 -45 -126 -160 -83 -55 -162 hvcurveto
            return
          </CharString>
          <CharString index="99">
            rmoveto
            278 hlineto
            186 660 rlineto
            -346 hlineto
            return
          </CharString>
          <CharString index="100">
            45 34 62 56 66 hhcurveto
            return
          </CharString>
          <CharString index="101">
            173 hmoveto
            return
          </CharString>
          <CharString index="102">
            380 592 433 283 -433 363 570 284 -950 hlineto
            endchar
          </CharString>
          <CharString index="103">
            382 441 hlineto
            -1 32 43 -1 80 hhcurveto
            407 219 201 361 hvcurveto
            return
          </CharString>
          <CharString index="104">
            93 71 87 53 103 hhcurveto
            98 54 -47 -94 -195 -357 -233 -154 -78 hvcurveto
            return
          </CharString>
          <CharString index="105">
            -21 538 257 474 269 -16 -20 return
          </CharString>
          <CharString index="106">
            327 hintmask 11000100
            return
          </CharString>
          <CharString index="107">
            hstemhm
            -19 1498 return
          </CharString>
          <CharString index="108">
            107 121 -1 return
          </CharString>
          <CharString index="109">
            222 -806 rlineto
            337 hlineto
            204 806 95 450 23 -438 rlineto
            return
          </CharString>
          <CharString index="110">
            rmoveto
            8 callgsubr
          </CharString>
          <CharString index="111">
            -67 callgsubr
            185 -21 hstemhm
            return
          </CharString>
          <CharString index="112">
            205 318 204 return
          </CharString>
          <CharString index="113">
            hstemhm
            85 1051 return
          </CharString>
          <CharString index="114">
            78 -485 -21 490 250 -229 -21 1156 -20 36 -20 return
          </CharString>
          <CharString index="115">
            -50 -1 -97 3 -40 5 rrcurveto
            return
          </CharString>
          <CharString index="116">
            rrcurveto
            -14 callgsubr
            return
          </CharString>
          <CharString index="117">
            72 -69 -109 26 -158 hhcurveto
            -266 -202 -102 -23 -44 hvcurveto
            return
          </CharString>
          <CharString index="118">
            124 395 252 257 251 hstem
            253 924 vstem
            return
          </CharString>
          <CharString index="119">
            217 2 hvcurveto
            10 callgsubr
            return
          </CharString>
          <CharString index="120">
            hintmask 00000000
            hintmask 11000000
            return
          </CharString>
          <CharString index="121">
            vstem
            -6 callsubr
            return
          </CharString>
          <CharString index="122">
            -371 vlineto
            return
          </CharString>
          <CharString index="123">
            -444 -186 1966 hstem
            287 288 vstem
            287 return
          </CharString>
          <CharString index="124">
            rmoveto
            121 return
          </CharString>
          <CharString index="125">
            -243 -171 -120 -92 -63 hvcurveto
            131 -172 rlineto
            return
          </CharString>
          <CharString index="126">
            -129 -55 -82 -110 -137 vvcurveto
            1028 335 rmoveto
            return
          </CharString>
          <CharString index="127">
            -53 21 23 callsubr
            return
          </CharString>
          <CharString index="128">
            -21 callgsubr
            1259 return
          </CharString>
          <CharString index="129">
            252 hstemhm
            79 805 return
          </CharString>
          <CharString index="130">
            -21 1228 294 return
          </CharString>
          <CharString index="131">
            -21 1158 -20 return
          </CharString>
          <CharString index="132">
            -464 195 return
          </CharString>
          <CharString index="133">
            -308 -221 209 1562 211 hstem
            return
          </CharString>
          <CharString index="134">
            -492 -215 202 1556 206 hstem
            return
          </CharString>
          <CharString index="135">
            21 -61 callgsubr
            hstem
            return
          </CharString>
          <CharString index="136">
            hintmask 00000000
            hintmask 10110000
            return
          </CharString>
          <CharString index="137">
            28 1197 return
          </CharString>
          <CharString index="138">
            rrcurveto
            -131 4 return
          </CharString>
          <CharString index="139">
            -340 21 -21 1144 -20 34 -20 return
          </CharString>
          <CharString index="140">
            805 139 -24 callsubr
            return
          </CharString>
        <CharString name=".notdef">
          572 0 219 hstem
          231 1416 vstem
          231 hmoveto
          1416 1416 -1416 hlineto
          230 -1053 rmoveto
          358 342 -359 363 123 125 357 -368 352 366 128 -124 -363 -358 363 -368 -122 -122 -362 368 -347 -368 rlineto
          endchar
        </CharString>
        <CharString name=".null">
          endchar
        </CharString>
        <CharString name="A">
          -57 callgsubr
          hstem
          -19 1498 vstem
          -99 callsubr
          endchar
        </CharString>
        <CharString name="AE">
          16 callgsubr
          -188 188 hstemhm
          -119 2002 hintmask 00000000
          hintmask 10110100
          -119 hmoveto
          410 hlineto
          hintmask 11110100
          137 318 rlineto
          438 hlineto
          hintmask 10110100
          -19 callsubr
          hintmask 11101100
          20 callgsubr
        </CharString>
        <CharString name="AEacute">
          16 callgsubr
          165 -21 hstemhm
          -119 2002 -972 522 hintmask 00001010
          1084 -83 callsubr
          hintmask 00000000
          -1030 -1666 rmoveto
          410 hlineto
          hintmask 10110100
          137 318 rlineto
          438 hlineto
          hintmask 11110100
          -19 callsubr
          hintmask 10110100
          20 callgsubr
        </CharString>
        <CharString name="Aacute">
          -57 callgsubr
          175 -21 0 callsubr
          -893 522 hintmask 11101000
          -99 callsubr
          hintmask 00010100
          -153 984 -100 callgsubr
          endchar
        </CharString>
        <CharString name="Abreve">
          -57 callgsubr
          82 230 0 callsubr
          -1134 769 hintmask 11101000
          -99 callsubr
          hintmask 00010100
          -181 1044 -93 callgsubr
          endchar
        </CharString>
        <CharString name="Acircumflex">
          -57 callgsubr
          166 -21 0 callsubr
          -1149 803 hintmask 11101000
          -99 callsubr
          hintmask 00000000
          -404 991 -94 callsubr
          hintmask 00010100
          -50 callsubr
        </CharString>
        <CharString name="Adieresis">
          -57 callgsubr
          70 382 0 callsubr
          -1214 937 hintmask 11101000
          -99 callsubr
          hintmask 00010100
          85 1032 -77 callgsubr
        </CharString>
        <CharString name="Agrave">
          -57 callgsubr
          175 -21 0 callsubr
          -1122 522 hintmask 11101000
          -99 callsubr
          hintmask 00010100
          -206 984 -52 callgsubr
        </CharString>
        <CharString name="Amacron">
          -57 callgsubr
          162 234 0 callsubr
          -1056 619 hintmask 11101000
          -99 callsubr
          hintmask 00010100
          -489 1124 -28 callgsubr
          endchar
        </CharString>
        <CharString name="Aogonek">
          154 -495 -21 537 -14 callsubr
          982 -20 hstem
          936 9 vstem
          -79 callgsubr
          97 hlineto
          -118 -58 -123 -104 5 -146 -31 callsubr
          -6 90 81 68 96 53 rrcurveto
          67 hlineto
          -534 1532 rlineto
          -434 hlineto
          24 -982 rmoveto
          135 477 51 197 50 -197 141 -477 rlineto
          endchar
        </CharString>
        <CharString name="Aring">
          154 21 -14 callsubr
          1264 163 hstem
          363 17 695 15 vstem
          -79 callgsubr
          404 hlineto
          -508 1456 71 46 47 75 1 111 rlinecurve
          10 callgsubr
          93 -222 hhcurveto
          -177 -188 -66 -216 -4 hvcurveto
          -2 -110 42 -83 80 -51 rrcurveto
          243 112 rmoveto
          -92 -66 44 84 104 75 20 83 -1 hvcurveto
          92 -1 68 -39 -89 vvcurveto
          -106 -64 -17 -96 1 vhcurveto
          -191 -1013 rmoveto
          135 477 51 197 50 -197 141 -477 rlineto
          endchar
        </CharString>
        <CharString name="Atilde">
          -57 callgsubr
          52 267 -112 -21 0 callsubr
          -1196 904 hintmask 11100100
          -99 callsubr
          hintmask 00000000
          -496 1048 -56 callgsubr
          hintmask 00001010
          160 109 -73 callsubr
          -46 -33 -60 -59 -70 hhcurveto
          hintmask 00010010
          3 callgsubr
        </CharString>
        <CharString name="B">
          156 -14 249 -214 -21 660 235 386 256 -14 -20 -21 callgsubr
          1214 hintmask 00000000
          hintmask 01101100
          -6 callsubr
          192 hlineto
          hintmask 10110100
          -47 callgsubr
          hintmask 01101100
          -185 1 rlineto
          378 -620 rmoveto
          hintmask 01110100
          -9 callsubr
          hintmask 01101100
          -35 -79 1 7 -33 hvcurveto
          hintmask 10101100
          -30 callgsubr
        </CharString>
        <CharString name="C">
          -15 callsubr
          hstem
          85 1177 vstem
          85 758 -97 callsubr
          endchar
        </CharString>
        <CharString name="CR">
          endchar
        </CharString>
        <CharString name="Cacute">
          -15 callsubr
          149 -21 25 callgsubr
          -567 522 hintmask 11010000
          85 758 -97 callsubr
          hintmask 00101000
          783 776 -100 callgsubr
          endchar
        </CharString>
        <CharString name="Ccaron">
          -15 callsubr
          20 406 25 callgsubr
          -820 798 hintmask 11010000
          85 758 -97 callsubr
          hintmask 00101000
          639 800 -20 callsubr
        </CharString>
        <CharString name="Ccedilla">
          0 25 callsubr
          276 -21 1250 302 25 callgsubr
          -534 24 callgsubr
          hintmask 11110000
          537 -42 callsubr
          67 -11 82 -24 53 vhcurveto
          141 10 97 39 69 29 -1 312 rcurveline
          -42 -51 -149 -56 -130 hhcurveto
          -284 -147 202 301 294 182 161 233 183 91 -59 -29 43 hvcurveto
          50 329 rlineto
          19 -92 -95 42 -211 hhcurveto
          -435 -344 -265 -515 -419 222 -286 403 -58 hvcurveto
          11 -26 8 -34 -1 -54 -26 callsubr
        </CharString>
        <CharString name="Ccircumflex">
          -15 callsubr
          140 -21 25 callgsubr
          -823 803 hintmask 11010000
          85 758 -97 callsubr
          hintmask 00000000
          532 783 -94 callsubr
          hintmask 00101000
          -50 callsubr
        </CharString>
        <CharString name="Cdotaccent">
          -15 callsubr
          57 367 25 callgsubr
          -615 401 hintmask 00101000
          840 1595 -98 callsubr
          hintmask 11010000
          -755 -837 -97 callsubr
          endchar
        </CharString>
        <CharString name="D">
          -32 callgsubr
          1263 275 -16 -20 -21 callgsubr
          1304 hintmask 00000000
          hintmask 00101100
          -6 callsubr
          134 hlineto
          117 134 -15 -1 148 hvcurveto
          hintmask 01010100
          488 -2 283 298 519 vvcurveto
          468 -232 271 -515 vhcurveto
          hintmask 10001100
          -143 -198 -16 -76 hhcurveto
          -140 hlineto
          383 -1242 rmoveto
          hintmask 10010100
          970 -70 callgsubr
          hintmask 10001100
          -68 -68 4 11 -38 hvcurveto
          endchar
        </CharString>
        <CharString name="DC1">
          endchar
        </CharString>
        <CharString name="DC2">
          endchar
        </CharString>
        <CharString name="DC3">
          endchar
        </CharString>
        <CharString name="DC4">
          endchar
        </CharString>
        <CharString name="DEL">
          endchar
        </CharString>
        <CharString name="DLE">
          endchar
        </CharString>
        <CharString name="Dcaron">
          -32 callgsubr
          1263 275 -16 -20 56 406 -21 callgsubr
          1304 -1098 798 hintmask 00000101
          661 1558 -87 callsubr
          hintmask 00000000
          -206 -1849 -68 callsubr
        </CharString>
        <CharString name="Dcroat">
          -80 callgsubr
        </CharString>
        <CharString name="Delta">
          -50 callgsubr
        </CharString>
        <CharString name="E">
          -63 callgsubr
          hstem
          173 1022 14 callsubr
          -85 callsubr
        </CharString>
        <CharString name="Eacute">
          -63 callgsubr
          165 -21 -10 callgsubr
          -640 522 hintmask 00010100
          728 -83 callsubr
          hintmask 11101000
          -382 -1666 rmoveto
          -85 callsubr
        </CharString>
        <CharString name="Ebreve">
          -63 callgsubr
          72 230 -10 callgsubr
          -880 769 hintmask 00010100
          701 1594 -93 callgsubr
          hintmask 11101000
          -528 -1594 rmoveto
          -85 callsubr
        </CharString>
        <CharString name="Ecaron">
          -63 callgsubr
          36 406 -10 callgsubr
          -892 798 hintmask 00010100
          585 1558 -87 callsubr
          hintmask 11101000
          -130 -1849 rmoveto
          -85 callsubr
        </CharString>
        <CharString name="Ecircumflex">
          -63 callgsubr
          156 -21 -10 callgsubr
          -895 803 hintmask 11101000
          -6 callsubr
          -82 callsubr
          hintmask 00000000
          305 19 -94 callsubr
          hintmask 00010100
          -50 callsubr
        </CharString>
        <CharString name="Edieresis">
          -63 callgsubr
          60 382 -10 callgsubr
          -960 937 hintmask 00010100
          967 1582 -101 callsubr
          hintmask 11101000
          -253 -1582 rmoveto
          -85 callsubr
        </CharString>
        <CharString name="Edotaccent">
          -63 callgsubr
          73 367 -10 callgsubr
          -688 401 hintmask 00010100
          700 1595 -98 callsubr
          hintmask 11101000
          -527 -1595 rmoveto
          -85 callsubr
        </CharString>
        <CharString name="Egrave">
          -63 callgsubr
          165 -21 -10 callgsubr
          -868 522 hintmask 00010100
          676 1534 -86 callsubr
          hintmask 11101000
          -503 -1534 rmoveto
          -85 callsubr
        </CharString>
        <CharString name="Emacron">
          -63 callgsubr
          152 234 -10 callgsubr
          -802 619 hintmask 00010100
          393 1674 -28 callgsubr
          hintmask 11101000
          -220 -1908 rmoveto
          -85 callsubr
        </CharString>
        <CharString name="Eng">
          325 9 callgsubr
          172 1285 14 callsubr
          355 659 hlineto
          -52 394 111 -238 489 -804 rlineto
          -152 -176 -136 -171 -49 vhcurveto
          74 -143 rlineto
          306 238 168 200 67 hvcurveto
          43 132 0 99 187 vvcurveto
          1205 -356 -670 vlineto
          42 -379 -102 214 -505 835 rlineto
          -364 hlineto
          endchar
        </CharString>
        <CharString name="Eogonek">
          -49 -495 -21 516 291 348 277 322 284 hstem
          173 1025 14 callsubr
          722 hlineto
          -118 -58 -123 -104 5 -146 -9 callgsubr
          -38 -8 -34 hhcurveto
          -71 -50 23 65 -4 hvcurveto
          -6 90 81 68 96 53 rrcurveto
          60 -84 callgsubr
          endchar
        </CharString>
        <CharString name="Eth">
          -80 callgsubr
        </CharString>
        <CharString name="Euro">
          172 -28 274 226 205 166 205 209 281 0 -20 hstemhm
          84 1297 hintmask 00000000
          hintmask 11101100
          84 472 rmoveto
          208 hlineto
          -317 71 221 -183 374 hhcurveto
          280 59 60 11 84 hvcurveto
          -60 279 rlineto
          -42 -62 -119 -34 -124 hhcurveto
          -181 -100 84 142 -50 hvcurveto
          439 205 -478 hlineto
          -3 38 -1 39 42 vvcurveto
          16 0 16 1 15 vhcurveto
          526 205 -485 hlineto
          hintmask 11110100
          147 61 120 62 146 hhcurveto
          157 -1 63 -25 69 -42 53 288 rcurveline
          -86 19 -80 50 -228 -8 -328 -12 -232 -164 -90 -314 rrcurveto
          -195 -205 158 hlineto
          -3 -40 -2 -41 -42 vvcurveto
          -43 -183 vlineto
          endchar
        </CharString>
        <CharString name="F">
          27 callgsubr
          hstem
          173 950 14 callsubr
          -5 callsubr
        </CharString>
        <CharString name="G">
          -33 callgsubr
          hstem
          85 1307 vstem
          85 753 -100 callsubr
          endchar
        </CharString>
        <CharString name="Gbreve">
          -33 callgsubr
          57 230 hstemhm
          85 1307 -936 769 hintmask 00010100
          842 1595 -93 callgsubr
          hintmask 11101000
          -757 -842 -100 callsubr
          endchar
        </CharString>
        <CharString name="Gcircumflex">
          -33 callgsubr
          141 -21 hstemhm
          85 1307 -951 803 hintmask 11101000
          85 753 -100 callsubr
          hintmask 00000000
          534 789 -94 callsubr
          hintmask 00010100
          -50 callsubr
        </CharString>
        <CharString name="Gcommaaccent">
          202 -39 callgsubr
          499 284 306 280 386 298 hstemhm
          85 1307 -736 327 hintmask 11000010
          656 -104 callsubr
          hintmask 00111100
          -799 837 -100 callsubr
          endchar
        </CharString>
        <CharString name="Gdotaccent">
          -33 callgsubr
          58 367 hstemhm
          85 1307 -743 401 hintmask 00010100
          842 1596 -98 callsubr
          hintmask 11101000
          -757 -843 -100 callsubr
          endchar
        </CharString>
        <CharString name="H">
          325 21 -21 631 274 617 -20 hstem
          173 1285 vstem
          -21 callsubr
          endchar
        </CharString>
        <CharString name="HT">
          endchar
        </CharString>
        <CharString name="Hbar">
          337 21 -21 573 266 196 220 267 -20 hstem
          28 1590 14 callsubr
          385 573 527 -573 385 1035 148 220 -148 267 -385 -267 -527 267 -385 -267 -145 -220 145 hlineto
          385 -196 rmoveto
          196 527 -196 vlineto
          endchar
        </CharString>
        <CharString name="Hcircumflex">
          326 21 -21 631 274 617 -20 176 -21 23 callgsubr
          -1044 803 hintmask 11101000
          -21 callsubr
          hintmask 00000000
          419 19 -94 callsubr
          hintmask 00010100
          -50 callsubr
        </CharString>
        <CharString name="I">
          -552 9 callgsubr
          185 384 vstem
          -69 callsubr
          endchar
        </CharString>
        <CharString name="IJ">
          248 -67 callgsubr
          hstemhm
          185 384 150 657 hintmask 11100000
          -69 callsubr
          hintmask 01010000
          534 -1663 -71 callsubr
          endchar
        </CharString>
        <CharString name="Iacute">
          -552 4 callsubr
          185 384 -338 522 hintmask 11010000
          -69 callsubr
          hintmask 00101000
          219 12 -100 callgsubr
          endchar
        </CharString>
        <CharString name="Ibreve">
          -552 -67 callgsubr
          92 230 hstemhm
          -10 769 -574 384 hintmask 11001000
          -69 callsubr
          hintmask 00110000
          191 72 -93 callgsubr
          endchar
        </CharString>
        <CharString name="Icircumflex">
          -552 -67 callgsubr
          176 -21 hstemhm
          -24 803 -594 384 hintmask 11001000
          -69 callsubr
          hintmask 00000000
          -31 19 -94 callsubr
          hintmask 00110000
          -50 callsubr
        </CharString>
        <CharString name="Idieresis">
          -552 -67 callgsubr
          80 382 hstemhm
          -89 937 -663 384 hintmask 11001000
          -69 callsubr
          hintmask 00110000
          458 60 -77 callgsubr
        </CharString>
        <CharString name="Idotaccent">
          -552 -67 callgsubr
          93 367 hstemhm
          183 401 -399 384 hintmask 11001000
          -69 callsubr
          hintmask 00110000
          191 73 -22 callsubr
        </CharString>
        <CharString name="Igrave">
          -552 4 callsubr
          3 522 -340 384 hintmask 11001000
          -69 callsubr
          hintmask 00110000
          167 12 -52 callgsubr
        </CharString>
        <CharString name="Imacron">
          -552 -67 callgsubr
          172 234 hstemhm
          69 619 -503 384 hintmask 11001000
          -69 callsubr
          hintmask 00110000
          -116 152 -28 callgsubr
          endchar
        </CharString>
        <CharString name="Iogonek">
          -547 -495 -21 537 -60 callgsubr
          hstem
          185 154 vstem
          185 hmoveto
          77 -45 callsubr
          67 1522 -384 hlineto
          endchar
        </CharString>
        <CharString name="Itilde">
          -552 -67 callgsubr
          62 267 -112 -21 hstemhm
          -71 904 -648 384 hintmask 11000100
          -69 callsubr
          hintmask 00000000
          -123 76 -56 callgsubr
          hintmask 00011000
          160 109 -73 callsubr
          -46 -33 -60 -59 -70 hhcurveto
          hintmask 00101000
          3 callgsubr
        </CharString>
        <CharString name="J">
          -506 1522 -20 hstem
          -35 657 vstem
          -35 -141 -71 callsubr
          endchar
        </CharString>
        <CharString name="Jcircumflex">
          -506 1522 -20 177 -21 hstemhm
          -35 657 -601 803 hintmask 10100000
          -35 -141 -71 callsubr
          hintmask 00000000
          234 1683 -94 callsubr
          hintmask 01010000
          -50 callsubr
        </CharString>
        <CharString name="K">
          162 9 callgsubr
          173 1293 14 callsubr
          -58 callgsubr
        </CharString>
        <CharString name="Kcommaaccent">
          162 -40 callsubr
          1522 -20 -21 callgsubr
          1293 -850 -1 callsubr
          616 -104 callsubr
          hintmask 00111000
          -671 84 rmoveto
          -58 callgsubr
        </CharString>
        <CharString name="L">
          13 callgsubr
          hstem
          173 889 14 callsubr
          -34 callsubr
        </CharString>
        <CharString name="LF">
          endchar
        </CharString>
        <CharString name="Lacute">
          13 callgsubr
          185 -21 -21 callgsubr
          889 -844 14 callgsubr
          391 -83 callsubr
          hintmask 11010000
          -45 -1666 rmoveto
          -34 callsubr
        </CharString>
        <CharString name="Lcaron">
          -184 0 287 699 737 -201 -20 -21 callgsubr
          889 -281 350 hintmask 10110000
          -6 callsubr
          -29 callsubr
          hintmask 00000000
          809 -536 rmoveto
          hintmask 01001000
          -81 callsubr
        </CharString>
        <CharString name="Lcommaaccent">
          -184 -39 callgsubr
          515 287 1235 -20 -21 callgsubr
          889 -609 -1 callsubr
          453 -104 callsubr
          hintmask 00111000
          -508 84 rmoveto
          -34 callsubr
        </CharString>
        <CharString name="Ldot">
          122 0 287 366 -21 890 -20 -21 callgsubr
          889 -201 428 hintmask 01001000
          861 843 -25 callsubr
          hintmask 10110000
          -688 -843 rmoveto
          -34 callsubr
        </CharString>
        <CharString name="Lslash">
          13 callgsubr
          hstem
          18 1044 14 callsubr
          889 287 -502 453 hlineto
          325 119 -73 196 -252 -93 rlineto
          560 -387 -703 vlineto
          -155 -57 73 -194 82 30 rlineto
          endchar
        </CharString>
        <CharString name="M">
          676 12 -21 29 -21 22 -60 callgsubr
          hstemhm
          64 1855 hintmask 00000000
          hintmask 01011000
          64 -1 19 callgsubr
          hintmask 10011000
          2 callsubr
          hintmask 00111000
          -35 callsubr
        </CharString>
        <CharString name="N">
          325 9 callgsubr
          173 1285 14 callsubr
          -85 callgsubr
        </CharString>
        <CharString name="Nacute">
          326 4 callsubr
          173 1285 -782 14 callgsubr
          849 -83 callsubr
          hintmask 11010000
          -503 -1666 rmoveto
          -85 callgsubr
        </CharString>
        <CharString name="Ncaron">
          326 -67 callgsubr
          56 406 23 callgsubr
          -1034 798 hintmask 00101000
          706 1558 -87 callsubr
          hintmask 11010000
          -251 -1849 rmoveto
          -85 callgsubr
        </CharString>
        <CharString name="Ncommaaccent">
          326 -40 callsubr
          1522 -20 23 callgsubr
          -828 -1 callsubr
          630 -104 callsubr
          hintmask 00111000
          -685 84 rmoveto
          -85 callgsubr
        </CharString>
        <CharString name="Ntilde">
          326 -67 callgsubr
          62 -18 callsubr
          173 1285 -1084 904 hintmask 00000000
          hintmask 00001010
          507 -78 callgsubr
          -201 -1730 rmoveto
          -85 callgsubr
        </CharString>
        <CharString name="O">
          -54 callgsubr
          hstem
          93 1416 vstem
          -62 callgsubr
          endchar
        </CharString>
        <CharString name="OE">
          850 -16 286 -270 291 -286 -21 658 277 319 284 -278 294 0 -20 hstemhm
          97 1970 hintmask 00000000
          hintmask 00111001
          773 -16 rmoveto
          120 1 94 27 63 39 rrcurveto
          hintmask 01011001
          -51 1017 291 -639 351 434 277 -434 319 579 284 -957 vlineto
          hintmask 01010011
          -41 vlineto
          35 -55 -79 22 -105 hhcurveto
          -392 -2 -313 -241 -9 -526 rrcurveto
          hintmask 00111001
          -9 -463 249 -324 436 2 rrcurveto
          hintmask 10010101
          36 286 rmoveto
          -203 -119 167 321 425 197 61 149 103 69 -44 -62 45 hvcurveto
          -766 vlineto
          -76 -50 -80 -26 -111 hhcurveto
          endchar
        </CharString>
        <CharString name="Oacute">
          -54 callgsubr
          149 22 callgsubr
          -825 14 callgsubr
          857 -83 callsubr
          hintmask 11010000
          -591 -897 -106 callsubr
          endchar
        </CharString>
        <CharString name="Obreve">
          -54 callgsubr
          56 230 -11 callgsubr
          -1066 769 hintmask 00101000
          829 1594 -93 callgsubr
          hintmask 11010000
          -736 -825 -106 callsubr
          endchar
        </CharString>
        <CharString name="Ocircumflex">
          -54 callgsubr
          140 22 callgsubr
          -1081 803 -64 callgsubr
          hintmask 00000000
          -197 1278 -94 callsubr
          hintmask 00101000
          -50 callsubr
        </CharString>
        <CharString name="Odieresis">
          -54 callgsubr
          44 382 -11 callgsubr
          -1146 937 hintmask 00101000
          1095 1582 -101 callsubr
          hintmask 11010000
          -461 -813 -106 callsubr
          endchar
        </CharString>
        <CharString name="Ograve">
          -54 callgsubr
          149 22 callgsubr
          -1054 14 callgsubr
          804 1534 -86 callsubr
          hintmask 11010000
          -711 -765 -106 callsubr
          endchar
        </CharString>
        <CharString name="Ohungarumlaut">
          -54 callgsubr
          140 22 callgsubr
          -1057 998 -64 callgsubr
          hintmask 00101000
          -172 1268 -74 callgsubr
        </CharString>
        <CharString name="Omacron">
          -54 callgsubr
          136 234 -11 callgsubr
          -988 619 hintmask 00101000
          521 1674 -28 callgsubr
          hintmask 11010000
          -428 -1139 -106 callsubr
          endchar
        </CharString>
        <CharString name="Omega">
          33 callgsubr
          157 1521 vstem
          157 -72 callsubr
        </CharString>
        <CharString name="Oslash">
          297 -16 279 -258 -21 1268 286 -14 -20 34 -20 -11 callgsubr
          hintmask 00000000
          hintmask 01001100
          375 -209 rmoveto
          134 -25 86 238 62 -14 67 -7 72 1 rlinecurve
          417 8 286 231 10 540 6 356 -139 259 -247 106 108 299 rcurveline
          -135 28 rlineto
          hintmask 01010100
          -103 -287 rlineto
          hintmask 01001100
          -54 11 -58 4 -61 -1 -423 -12 -300 -217 -10 -540 -7 -350 136 -259 245 -113 rrcurveto
          117 325 rmoveto
          -67 89 -32 135 162 vvcurveto
          hintmask 10100100
          373 150 121 184 28 26 -4 -7 24 vhcurveto
          -201 -958 rmoveto
          317 880 rlineto
          70 -83 34 -137 -169 vvcurveto
          -367 -120 -144 -194 -40 -35 7 13 -32 vhcurveto
          endchar
        </CharString>
        <CharString name="Otilde">
          -54 callgsubr
          26 -18 callsubr
          93 1416 -1128 904 hintmask 00000000
          hintmask 00001010
          514 -78 callgsubr
          -288 -961 -106 callsubr
          endchar
        </CharString>
        <CharString name="P">
          26 callgsubr
          -21 callgsubr
          1163 hintmask 00000000
          hintmask 11011000
          -6 callsubr
          -4 callsubr
          hintmask 11101000
          396 -220 141 -367 vhcurveto
          hintmask 11011000
          11 callgsubr
          hintmask 11101000
          -20 callgsubr
          hintmask 11011000
          -62 -51 4 4 -42 hvcurveto
          endchar
        </CharString>
        <CharString name="Q">
          297 -355 273 1334 286 hstem
          93 1451 vstem
          695 -12 rmoveto
          -253 78 199 -90 330 hhcurveto
          97 109 27 19 36 hvcurveto
          256 vlineto
          -14 -40 -101 -15 -57 hhcurveto
          -158 -133 12 78 -58 hvcurveto
          305 72 198 235 9 448 9 483 -260 304 -432 -12 -423 -12 -300 -217 -10 -540 -9 -447 224 -298 387 -36 rrcurveto
          108 275 rmoveto
          -214 -104 207 288 373 150 121 184 203 95 -193 -285 -367 -120 -144 -194 hvcurveto
          endchar
        </CharString>
        <CharString name="R">
          -18 callgsubr
          21 callsubr
          hintmask 00000000
          hintmask 11011000
          -6 callsubr
          -83 callgsubr
          hintmask 11101000
          -1 callgsubr
          hintmask 11011000
          -38 callsubr
          hintmask 11101000
          -58 callsubr
          hintmask 11011000
          8 callsubr
          endchar
        </CharString>
        <CharString name="RS">
          endchar
        </CharString>
        <CharString name="Racute">
          -18 callgsubr
          185 -21 21 callsubr
          -806 522 hintmask 00000000
          hintmask 11010100
          -6 callsubr
          -83 callgsubr
          hintmask 11100100
          -1 callgsubr
          hintmask 11010100
          -38 callsubr
          hintmask 11100100
          -58 callsubr
          hintmask 11010100
          8 callsubr
          hintmask 00001010
          246 732 -100 callgsubr
          endchar
        </CharString>
        <CharString name="Rcaron">
          -18 callgsubr
          56 406 21 callsubr
          -1058 798 hintmask 00001010
          656 1558 -87 callsubr
          hintmask 00000000
          -201 -1849 rmoveto
          -83 callgsubr
          hintmask 11010100
          -1 callgsubr
          hintmask 11100100
          -38 callsubr
          hintmask 11010100
          -58 callsubr
          hintmask 11100100
          8 callsubr
          endchar
        </CharString>
        <CharString name="Rcommaaccent">
          164 -539 -21 66 -21 536 -2 callsubr
          21 callsubr
          -833 327 hintmask 11000001
          599 -104 callsubr
          hintmask 00000000
          -654 84 rmoveto
          -83 callgsubr
          hintmask 00110110
          -1 callgsubr
          hintmask 00111010
          -38 callsubr
          hintmask 00110110
          -58 callsubr
          hintmask 00111010
          8 callsubr
          endchar
        </CharString>
        <CharString name="S">
          -29 callgsubr
          1 callgsubr
          21 callgsubr
          130 78 -102 callsubr
          hintmask 10110000
          -70 callsubr
          endchar
        </CharString>
        <CharString name="Sacute">
          -29 callgsubr
          149 -21 1 callgsubr
          -648 522 hintmask 00000000
          hintmask 01101000
          130 78 -102 callsubr
          hintmask 10101000
          -70 callsubr
          hintmask 00010100
          514 1160 -100 callgsubr
          endchar
        </CharString>
        <CharString name="Scaron">
          -29 callgsubr
          20 406 1 callgsubr
          -900 798 hintmask 00000000
          hintmask 01101000
          130 78 -102 callsubr
          hintmask 10101000
          -70 callsubr
          hintmask 00010100
          371 1184 -20 callsubr
        </CharString>
        <CharString name="Scedilla">
          -77 25 callsubr
          277 -21 28 -21 1268 276 1 callgsubr
          -621 24 callgsubr
          hintmask 11011000
          130 78 rmoveto
          hintmask 11010100
          51 -33 163 -47 186 -11 10 -25 6 -33 -1 -48 rrcurveto
          -55 callgsubr
          hintmask 10110100
          1 70 -13 86 -27 54 rrcurveto
          271 40 147 165 236 vvcurveto
          239 -156 116 -262 118 vhcurveto
          -184 84 -79 50 92 vvcurveto
          77 66 51 144 133 143 -49 -48 61 vhcurveto
          59 286 rlineto
          32 -55 -146 55 -228 hhcurveto
          -322 -221 -140 -277 -245 163 -135 194 -92 hvcurveto
          227 -108 82 -38 -97 vvcurveto
          -70 callsubr
          endchar
        </CharString>
        <CharString name="Scircumflex">
          -29 callgsubr
          140 -21 1 callgsubr
          -904 803 hintmask 00000000
          hintmask 01101000
          130 78 -102 callsubr
          hintmask 10101000
          -70 callsubr
          hintmask 00000000
          263 1167 -94 callsubr
          hintmask 00010100
          -50 callsubr
        </CharString>
        <CharString name="T">
          20 callsubr
          hstem
          30 callsubr
          vstem
          435 hmoveto
          -48 callsubr
        </CharString>
        <CharString name="Tbar">
          -53 21 -21 558 238 432 294 hstem
          30 callsubr
          vstem
          435 hmoveto
          384 558 285 238 -285 432 406 294 -1197 -294 407 -432 -258 -238 258 hlineto
          endchar
        </CharString>
        <CharString name="Tcaron">
          20 callsubr
          36 406 hstemhm
          30 callsubr
          -998 798 hintmask 00101000
          509 1558 -87 callsubr
          hintmask 11010000
          208 -1849 rmoveto
          -48 callsubr
        </CharString>
        <CharString name="Thorn">
          87 21 -21 235 269 518 277 223 -20 hstem
          173 1161 14 callsubr
          383 244 hlineto
          -4 43 77 -5 99 hhcurveto
          362 197 218 352 323 -201 171 -334 -83 -87 -9 -4 -73 hvcurveto
          236 -383 vlineto
          383 -1010 rmoveto
          494 vlineto
          42 10 43 5 50 1 rrcurveto
          180 5 87 -91 -145 vvcurveto
          -227 -120 -60 -148 -42 -44 0 8 -48 vhcurveto
          endchar
        </CharString>
        <CharString name="U">
          -54 callsubr
          hstem
          138 1270 vstem
          -74 callsubr
          endchar
        </CharString>
        <CharString name="US">
          endchar
        </CharString>
        <CharString name="Uacute">
          -54 callsubr
          185 -21 -36 callgsubr
          -780 14 callgsubr
          801 -83 callsubr
          hintmask 11010000
          -490 -1028 -101 callgsubr
          endchar
        </CharString>
        <CharString name="Ubreve">
          -54 callsubr
          92 230 -36 callgsubr
          -1021 769 hintmask 00101000
          773 1594 -93 callgsubr
          hintmask 11010000
          -635 -956 -101 callgsubr
          endchar
        </CharString>
        <CharString name="Ucircumflex">
          -54 callsubr
          176 -21 -36 callgsubr
          -1036 803 hintmask 11010000
          -74 callsubr
          hintmask 00000000
          408 19 -94 callsubr
          hintmask 00101000
          -50 callsubr
        </CharString>
        <CharString name="Udieresis">
          -54 callsubr
          80 382 -36 callgsubr
          -1101 937 hintmask 00101000
          1039 1582 -101 callsubr
          hintmask 11010000
          -360 -944 -101 callgsubr
          endchar
        </CharString>
        <CharString name="Ugrave">
          -54 callsubr
          185 -21 -36 callgsubr
          -1008 14 callgsubr
          749 1534 -86 callsubr
          hintmask 11010000
          -611 -896 -101 callgsubr
          endchar
        </CharString>
        <CharString name="Uhungarumlaut">
          -54 callsubr
          176 -21 -36 callgsubr
          -1012 998 hintmask 11010000
          -74 callsubr
          hintmask 00101000
          433 9 -74 callgsubr
        </CharString>
        <CharString name="Umacron">
          -54 callsubr
          172 234 -36 callgsubr
          -942 619 hintmask 00101000
          466 1674 -28 callgsubr
          hintmask 11010000
          -328 -1270 -101 callgsubr
          endchar
        </CharString>
        <CharString name="Uogonek">
          239 -495 -21 500 300 -279 -21 1538 -20 -36 callgsubr
          hintmask 00000000
          hintmask 10111000
          138 638 rmoveto
          -1 -392 170 -260 467 -2 -95 -60 -80 -92 5 -124 rrcurveto
          -131 3 132 -93 146 hhcurveto
          105 85 24 43 68 6 callgsubr
          -38 -8 -34 hhcurveto
          -72 -57 27 65 -4 hvcurveto
          -2 84 50 70 70 67 rrcurveto
          269 76 120 219 323 vvcurveto
          890 -376 -837 vlineto
          hintmask 11011000
          -312 -86 -89 -171 -171 -89 81 320 2 vhcurveto
          3 837 rlineto
          -378 hlineto
          endchar
        </CharString>
        <CharString name="Uring">
          239 -16 300 1109 170 -41 -20 312 163 -36 callgsubr
          -1000 5 callsubr
          hintmask 10101000
          -74 callsubr
          hintmask 01010110
          626 -129 -59 callsubr
        </CharString>
        <CharString name="Utilde">
          -54 callsubr
          62 -18 callsubr
          138 1270 -1083 904 hintmask 00000000
          hintmask 00001010
          458 -78 callgsubr
          -187 -1092 -101 callgsubr
          endchar
        </CharString>
        <CharString name="V">
          104 17 -21 1526 -20 hstem
          -12 1434 vstem
          541 -4 rmoveto
          332 hlineto
          549 1526 rlineto
          -406 hlineto
          -227 -769 -76 -296 -76 296 -243 769 rlineto
          -406 hlineto
          endchar
        </CharString>
        <CharString name="W">
          -15 callgsubr
          hstem
          -13 2024 vstem
          387 -10 -90 callgsubr
        </CharString>
        <CharString name="Wacute">
          -15 callgsubr
          185 -21 hstemhm
          -13 2024 -1169 14 callgsubr
          1015 -83 callsubr
          hintmask 11010000
          -455 -1676 -90 callgsubr
        </CharString>
        <CharString name="Wcircumflex">
          -15 callgsubr
          176 -21 hstemhm
          -13 2024 -1425 803 hintmask 11010000
          387 -10 -88 callgsubr
          hintmask 00000000
          777 19 -94 callsubr
          hintmask 00101000
          -50 callsubr
        </CharString>
        <CharString name="Wdieresis">
          -15 callgsubr
          80 382 hstemhm
          -13 2024 -1490 937 hintmask 00101000
          1253 1582 -101 callsubr
          hintmask 11010000
          -325 -1592 -90 callgsubr
        </CharString>
        <CharString name="Wgrave">
          -15 callgsubr
          185 -21 hstemhm
          -13 2024 -1397 14 callgsubr
          963 1534 -86 callsubr
          hintmask 11010000
          -576 -1544 -90 callgsubr
        </CharString>
        <CharString name="X">
          89 -67 callgsubr
          21 -20 hstemhm
          14 1370 29 callsubr
          14 hmoveto
          402 hlineto
          206 392 63 131 64 -131 213 -392 rlineto
          422 hlineto
          -456 756 rlineto
          hintmask 11010000
          442 766 rlineto
          -400 hlineto
          -197 -382 -59 -116 -60 116 rlineto
          hintmask 10110000
          -209 383 -419 -1 437 -743 rlineto
          endchar
        </CharString>
        <CharString name="Y">
          -17 9 callgsubr
          -53 1395 vstem
          -82 callgsubr
          endchar
        </CharString>
        <CharString name="Yacute">
          -17 4 callsubr
          -53 1395 -824 522 hintmask 11010000
          -82 callgsubr
          hintmask 00101000
          243 998 -100 callgsubr
          endchar
        </CharString>
        <CharString name="Ycircumflex">
          -17 -67 callgsubr
          176 -21 hstemhm
          -53 1395 -1079 803 hintmask 11010000
          -82 callgsubr
          hintmask 00000000
          -7 1005 -94 callsubr
          hintmask 00101000
          -50 callsubr
        </CharString>
        <CharString name="Ydieresis">
          -17 -67 callgsubr
          80 382 hstemhm
          -53 1395 -1144 937 hintmask 11010000
          -82 callgsubr
          hintmask 00101000
          482 1046 -77 callgsubr
        </CharString>
        <CharString name="Ygrave">
          -17 4 callsubr
          -53 1395 -1052 522 hintmask 11010000
          -82 callgsubr
          hintmask 00101000
          191 998 -52 callgsubr
        </CharString>
        <CharString name="Z">
          -17 callgsubr
          hstemhm
          36 1208 hintmask 00000000
          hintmask 11010000
          78 hmoveto
          -16 callgsubr
          hintmask 10110000
          613 1052 rlineto
          hintmask 11010000
          -43 callgsubr
          endchar
        </CharString>
        <CharString name="Zacute">
          -17 callgsubr
          165 -21 hstemhm
          36 1208 -715 522 hintmask 00000000
          hintmask 11001000
          78 hmoveto
          -16 callgsubr
          hintmask 10101000
          613 1052 rlineto
          hintmask 11001000
          -43 callgsubr
          hintmask 00010100
          666 1450 -100 callgsubr
          endchar
        </CharString>
        <CharString name="Zcaron">
          -17 callgsubr
          36 406 hstemhm
          36 1208 -968 798 hintmask 00010100
          558 1558 -87 callsubr
          hintmask 00000000
          -198 -1849 -37 callgsubr
        </CharString>
        <CharString name="Zdotaccent">
          -17 callgsubr
          73 367 hstemhm
          36 1208 -763 401 hintmask 00010100
          674 1595 -98 callsubr
          hintmask 00000000
          -596 -1595 -37 callgsubr
        </CharString>
        <CharString name="a">
          -75 callsubr
          7 callgsubr
          hintmask 00000000
          hintmask 01111000
          -107 callsubr
          hintmask 10111000
          -96 callsubr
          endchar
        </CharString>
        <CharString name="aacute">
          -75 callsubr
          496 -21 7 callgsubr
          -637 582 hintmask 00000000
          hintmask 01110100
          -107 callsubr
          hintmask 10110100
          -96 callsubr
          hintmask 00001010
          193 870 -19 callgsubr
        </CharString>
        <CharString name="abreve">
          -75 callsubr
          125 243 7 callgsubr
          -871 770 hintmask 00000000
          hintmask 01110100
          -107 callsubr
          hintmask 10110100
          -96 callsubr
          hintmask 00001010
          172 918 -95 callsubr
        </CharString>
        <CharString name="acircumflex">
          -75 callsubr
          88 484 7 callgsubr
          -900 832 hintmask 00000000
          hintmask 01110100
          -107 callsubr
          hintmask 10110100
          -96 callsubr
          hintmask 00001010
          -67 881 -48 callgsubr
        </CharString>
        <CharString name="acute">
          -606 1657 -21 hstem
          37 582 vstem
          210 1238 -19 callgsubr
        </CharString>
        <CharString name="acute.cap">
          -629 1687 -21 hstem
          102 522 vstem
          275 -83 callsubr
          endchar
        </CharString>
        <CharString name="adieresis">
          -75 callsubr
          120 394 7 callgsubr
          -941 910 hintmask 00000000
          hintmask 01110100
          -107 callsubr
          hintmask 10110100
          -96 callsubr
          hintmask 00001010
          423 913 -52 callsubr
        </CharString>
        <CharString name="ae">
          -25 callgsubr
          hstemhm
          92 1700 hintmask 0000000000000000
          hintmask 0011000110000000
          92 333 -35 callgsubr
          hintmask 0101001010000000
          -43 callsubr
          hintmask 0011000110000000
          10 callsubr
          hintmask 0010110010000000
          -23 callgsubr
          hintmask 0011000110000000
          19 callsubr
          hintmask 1001001010000000
          -3 callgsubr
          hintmask 1000100110000000
          -13 callgsubr
          hintmask 1001001010000000
          -75 -71 45 104 hvcurveto
          endchar
        </CharString>
        <CharString name="aeacute">
          -25 callgsubr
          516 -21 hstemhm
          92 1700 -1005 582 hintmask 0000000010100000
          960 1237 -97 callgsubr
          hintmask 0000000000000000
          -695 -1062 -35 callgsubr
          hintmask 0011000101000000
          -43 callsubr
          hintmask 0101001001000000
          10 callsubr
          hintmask 0011000101000000
          -23 callgsubr
          hintmask 0010110001000000
          19 callsubr
          hintmask 0011000101000000
          -3 callgsubr
          hintmask 1001001001000000
          -13 callgsubr
          hintmask 1000100101000000
          -75 -71 45 104 hvcurveto
          endchar
        </CharString>
        <CharString name="afii61352">
          1444 0 246 152 238 652 242 -8 -20 -21 callgsubr
          330 570 329 hintmask 00000000
          hintmask 11101100
          1591 978 rmoveto
          -304 -4 109 -276 438 hhcurveto
          336 201 222 350 3 hvcurveto
          309 2 -150 251 -373 hhcurveto
          -347 -211 -199 -353 -4 hvcurveto
          -1418 -978 rmoveto
          330 686 hlineto
          -27 339 106 -236 462 -789 rlineto
          358 hlineto
          hintmask 11011100
          1522 -329 -734 vlineto
          21 -301 -92 212 -478 823 rlineto
          -351 hlineto
          1773 -549 rmoveto
          hintmask 11101100
          214 64 101 131 122 56 -110 -211 -228 -52 -103 -129 vhcurveto
          hintmask 11011100
          -126 -66 113 224 hvcurveto
          -271 -973 rmoveto
          937 246 -937 hlineto
          endchar
        </CharString>
        <CharString name="agrave">
          -75 callsubr
          496 -21 7 callgsubr
          -941 587 hintmask 00000000
          hintmask 01110100
          -107 callsubr
          hintmask 10110100
          -96 callsubr
          hintmask 00001010
          134 854 -90 callsubr
        </CharString>
        <CharString name="amacron">
          -75 callsubr
          243 238 7 callgsubr
          -795 619 hintmask 00000000
          hintmask 01110100
          -107 callsubr
          hintmask 10110100
          -96 callsubr
          hintmask 00001010
          -138 1036 -27 callsubr
          endchar
        </CharString>
        <CharString name="ampersand">
          234 -16 248 -212 -21 1314 233 hstemhm
          61 1435 -1259 323 283 303 -2 292 21 callgsubr
          61 410 rmoveto
          hintmask 10110000
          -271 224 -155 456 118 111 29 38 92 vhcurveto
          -40 75 91 -27 112 hhcurveto
          66 55 7 8 35 hvcurveto
          205 vlineto
          -77 -56 12 23 -51 hvcurveto
          hintmask 01100010
          75 82 49 114 167 vvcurveto
          95 -9 44 -6 25 vhcurveto
          -294 hlineto
          3 -28 14 -42 -93 vvcurveto
          -56 -17 -77 -39 -56 vhcurveto
          -91 97 -108 133 -65 87 rrcurveto
          hintmask 01101100
          174 85 148 110 246 vvcurveto
          212 -176 162 -272 -280 -181 -144 -248 -141 58 -115 73 -105 vhcurveto
          hintmask 01110000
          -181 -80 -126 -116 -187 vvcurveto
          hintmask 10101100
          626 500 rmoveto
          -90 113 -37 51 89 vvcurveto
          84 52 66 92 110 29 -84 -60 -113 -60 -85 -96 -61 vhcurveto
          -283 -482 rmoveto
          72 39 57 71 46 vhcurveto
          86 -109 119 -137 108 -113 rrcurveto
          -8 -36 -42 -4 -51 hhcurveto
          -213 -81 79 117 hvcurveto
          endchar
        </CharString>
        <CharString name="aogonek">
          -43 -495 -21 500 228 -207 -21 33 -21 532 178 192 262 7 callgsubr
          hintmask 00000000
          hintmask 10011110
          85 348 rmoveto
          hintmask 10101110
          -212 147 -152 225 153 101 56 56 64 vhcurveto
          -8 vlineto
          hintmask 10011110
          -53 11 -27 23 -12 vhcurveto
          -115 -59 -117 -102 5 -143 -31 callsubr
          hintmask 10101110
          -6 84 72 61 89 50 rrcurveto
          82 745 hlineto
          315 -134 116 -360 -203 -215 -75 -50 -83 vhcurveto
          75 -218 rlineto
          47 102 159 34 83 hhcurveto
          171 37 -24 -99 hvcurveto
          -69 vlineto
          -143 -184 -9 -60 -139 hvcurveto
          hintmask 10011110
          -126 -54 -79 -101 -134 vvcurveto
          hintmask 11001110
          -96 callsubr
          endchar
        </CharString>
        <CharString name="approxequal">
          140 192 4 callgsubr
          78 4 callgsubr
          hstemhm
          185 1066 -1059 1066 hintmask 00000000
          hintmask 01000001
          336 246 rmoveto
          hintmask 00100001
          44 43 55 60 97 hhcurveto
          hintmask 10000001
          -49 callgsubr
          hintmask 00100001
          -30 callsubr
          hintmask 00000000
          137 367 rmoveto
          hintmask 00001010
          44 43 55 60 97 hhcurveto
          hintmask 00000110
          -49 callgsubr
          hintmask 00010010
          -30 callsubr
          endchar
        </CharString>
        <CharString name="aring">
          -75 callsubr
          135 169 278 163 7 callgsubr
          -849 5 callsubr
          hintmask 0000000000000000
          hintmask 0111001000000000
          -107 callsubr
          hintmask 1011001000000000
          -96 callsubr
          hintmask 0000110110000000
          168 928 -79 callsubr
          endchar
        </CharString>
        <CharString name="asciicircum">
          84 1531 -20 hstem
          138 1114 vstem
          138 490 rmoveto
          330 hlineto
          226 585 233 -585 rlineto
          325 hlineto
          -436 1041 rlineto
          -241 hlineto
          endchar
        </CharString>
        <CharString name="asciitilde">
          140 632 4 callgsubr
          hstemhm
          190 1066 hintmask 00000000
          hintmask 01010000
          334 686 rmoveto
          hintmask 00110000
          44 43 55 60 97 hhcurveto
          hintmask 10010000
          -49 callgsubr
          hintmask 00110000
          -30 callsubr
          endchar
        </CharString>
        <CharString name="asterisk">
          106 584 1174 hstem
          133 1146 vstem
          274 748 rmoveto
          260 193 116 127 -43 -163 -29 -321 rlineto
          271 hlineto
          -37 323 -3 19 -42 128 -2 13 rlinecurve
          123 -120 254 -188 137 251 -292 125 -165 39 163 45 287 134 -127 242 -266 -192 -14 -12 -92 -105 -10 -9 rlinecurve
          44 165 27 316 rlineto
          -272 hlineto
          40 -321 2 -20 42 -128 2 -14 rlinecurve
          -118 121 -273 189 -124 -243 294 -131 17 -7 133 -27 12 -4 rlinecurve
          -160 -42 -289 -139 rlineto
          endchar
        </CharString>
        <CharString name="at">
          939 -461 190 266 211 -211 258 608 219 272 191 hstemhm
          143 226 235 282 376 234 373 221 hintmask 0000000000000000
          hintmask 1101111110000000
          143 428 rmoveto
          -620 415 -269 482 286 157 77 65 96 vhcurveto
          -46 166 rlineto
          -48 -86 -121 -70 -266 hhcurveto
          -332 -359 164 534 589 421 336 460 292 327 -127 -454 -365 -174 -200 -145 -53 -17 58 158 33 hvcurveto
          41 185 57 305 31 144 -197 -31 rcurveline
          35 -56 -94 20 -78 hhcurveto
          -426 -181 -363 -274 -6 hvcurveto
          hintmask 1011111110000000
          -300 -7 161 -148 148 hhcurveto
          159 115 113 137 82 hvcurveto
          -1 -25 1 -20 1 -17 rrcurveto
          hintmask 1101111110000000
          -137 9 70 -51 134 hhcurveto
          296 318 252 550 484 -360 262 -475 -601 -511 -446 -669 hvcurveto
          hintmask 1011111110000000
          743 32 rmoveto
          203 2 130 198 161 hhcurveto
          66 51 -19 -28 25 hvcurveto
          -231 -29 -176 -330 -133 hhcurveto
          -58 -40 68 139 1 hvcurveto
          endchar
        </CharString>
        <CharString name="atilde">
          -75 callsubr
          139 -39 callsubr
          85 1039 -950 920 hintmask 0000000000000000
          hintmask 0111000100000000
          -107 callsubr
          hintmask 1011000100000000
          -96 callsubr
          hintmask 0000000000000000
          -160 965 rmoveto
          hintmask 0000001010000000
          -7 callsubr
          hintmask 0000010010000000
          -27 callgsubr
          hintmask 0000100010000000
          162 111 -73 callsubr
          hintmask 0000001010000000
          -6 callgsubr
          hintmask 0000100010000000
          -66 callsubr
        </CharString>
        <CharString name="b">
          75 -21 249 928 -20 hstem
          159 1137 vstem
          -64 callsubr
          endchar
        </CharString>
        <CharString name="backslash">
          -444 -363 1962 hstem
          0 846 vstem
          291 1599 rmoveto
          -291 hlineto
          555 -1962 rlineto
          291 hlineto
          endchar
        </CharString>
        <CharString name="bar">
          16 callsubr
          -186 rmoveto
          288 1966 -288 hlineto
          endchar
        </CharString>
        <CharString name="braceleft">
          26 callsubr
          328 313 vstem
          328 60 rmoveto
          -197 80 -84 154 109 131 11 24 86 vhcurveto
          174 -247 559 vlineto
          47 -13 36 -25 28 vhcurveto
          -44 52 -93 39 -78 27 79 28 96 42 42 53 rrcurveto
          22 28 14 36 46 vvcurveto
          541 247 187 vlineto
          11 -86 -131 13 -109 hhcurveto
          -154 -80 -78 -197 hvcurveto
          -469 vlineto
          -85 -158 -44 -101 -10 vhcurveto
          -202 vlineto
          101 -10 158 -54 -83 vvcurveto
          endchar
        </CharString>
        <CharString name="braceright">
          26 callsubr
          351 313 vstem
          664 529 rmoveto
          83 158 54 101 10 vhcurveto
          202 vlineto
          -101 10 -158 44 85 vvcurveto
          469 vlineto
          197 -80 78 -154 -109 -131 -13 -11 -86 vhcurveto
          -187 247 -541 vlineto
          -46 14 -36 22 -28 vhcurveto
          42 -53 96 -42 79 -28 -78 -27 -93 -39 -44 -52 rrcurveto
          -25 -28 -13 -36 -47 vvcurveto
          -559 -247 -174 vlineto
          -24 86 131 -11 109 hhcurveto
          154 80 84 197 hvcurveto
          endchar
        </CharString>
        <CharString name="bracketleft">
          27 callsubr
          128 321 vstem
          128 68 rmoveto
          -197 48 -86 154 161 102 15 13 107 vhcurveto
          174 vlineto
          -251 1 rlineto
          1555 251 182 vlineto
          10 -107 -101 14 -162 hhcurveto
          -153 -49 -66 -197 hvcurveto
          endchar
        </CharString>
        <CharString name="bracketright">
          27 callsubr
          358 321 vstem
          679 1486 rmoveto
          197 -49 66 -153 -162 -101 -14 -10 -107 vhcurveto
          -182 251 -1555 vlineto
          -251 -1 rlineto
          -174 vlineto
          -13 107 102 -15 161 hhcurveto
          154 48 86 197 hvcurveto
          endchar
        </CharString>
        <CharString name="breve">
          -481 1286 243 hstem
          28 770 vstem
          414 1286 -95 callsubr
        </CharString>
        <CharString name="breve.cap">
          -481 1595 230 hstem
          28 769 vstem
          414 1595 -93 callgsubr
          endchar
        </CharString>
        <CharString name="brokenbar">
          16 callsubr
          973 rmoveto
          288 807 -288 hlineto
          -1966 vmoveto
          288 791 -288 hlineto
          endchar
        </CharString>
        <CharString name="bullet">
          -395 440 582 hstem
          161 589 vstem
          446 440 rmoveto
          166 137 142 160 1 hvcurveto
          163 -116 117 -166 -165 -141 -140 -161 -1 vhcurveto
          -161 -1 121 -120 165 hhcurveto
          endchar
        </CharString>
        <CharString name="c">
          -46 callgsubr
          30 callgsubr
          hintmask 00000000
          hintmask 01011000
          85 559 -57 callsubr
          hintmask 10101000
          -45 209 rlineto
          -91 callgsubr
          hintmask 01011000
          -28 callsubr
          hvcurveto
          endchar
        </CharString>
        <CharString name="cacute">
          -46 callgsubr
          521 -21 30 callgsubr
          -519 582 hintmask 00001010
          649 1238 -97 callgsubr
          hintmask 00000000
          -391 -837 -57 callsubr
          hintmask 01010100
          -45 209 rlineto
          -91 callgsubr
          hintmask 10100100
          -28 callsubr
          hvcurveto
          endchar
        </CharString>
        <CharString name="caron">
          -476 1249 483 hstem
          31 832 vstem
          336 1249 -78 callsubr
          endchar
        </CharString>
        <CharString name="caron.cap">
          -541 1558 406 hstem
          44 798 vstem
          326 1558 -20 callsubr
        </CharString>
        <CharString name="caronvertical">
          -856 986 737 hstemhm
          63 350 -289 289 13 callsubr
          264 986 rmoveto
          hintmask 10100000
          -81 callsubr
        </CharString>
        <CharString name="ccaron">
          -46 callgsubr
          121 483 30 callgsubr
          -787 832 hintmask 00001010
          513 1257 -78 callsubr
          hintmask 00000000
          -123 -1068 -57 callsubr
          hintmask 01010100
          -45 209 rlineto
          -91 callgsubr
          hintmask 10100100
          -28 callsubr
          hvcurveto
          endchar
        </CharString>
        <CharString name="ccedilla">
          -258 25 callsubr
          284 -21 874 288 0 -20 30 callgsubr
          -450 24 callgsubr
          hintmask 11011000
          354 -255 rmoveto
          -46 callsubr
          hintmask 11100100
          145 118 77 171 2 hvcurveto
          1 70 -13 86 -27 54 106 17 94 40 47 49 -45 209 rcurveline
          -91 callgsubr
          -28 callsubr
          -296 141 -229 302 -43 hvcurveto
          11 -26 7 -33 -1 -51 9 callsubr
          hintmask 11011000
          -31 -26 3 11 -17 hvcurveto
          endchar
        </CharString>
        <CharString name="ccircumflex">
          -46 callgsubr
          113 484 30 callgsubr
          -783 832 hintmask 00001010
          388 1249 -95 callgsubr
          hintmask 00000000
          -127 -804 -57 callsubr
          hintmask 01010100
          -45 209 rlineto
          -91 callgsubr
          hintmask 10100100
          -28 callsubr
          hvcurveto
          endchar
        </CharString>
        <CharString name="cdotaccent">
          -46 callgsubr
          143 398 30 callgsubr
          -589 427 hintmask 00000000
          hintmask 01010100
          85 559 -57 callsubr
          hintmask 10100100
          -45 209 rlineto
          -91 callgsubr
          hintmask 01010100
          -28 callsubr
          hvcurveto
          hintmask 00001010
          527 720 -96 callgsubr
        </CharString>
        <CharString name="cedilla">
          -777 25 callsubr
          -195 498 hstemhm
          243 24 callgsubr
          hintmask 01100000
          206 30 rmoveto
          20 -32 19 -37 -2 -80 rrcurveto
          hintmask 10100000
          -55 callgsubr
          1 90 -21 117 -46 39 -52 4 rcurveline
          endchar
        </CharString>
        <CharString name="cent">
          -106 8 -21 29 -21 1150 -20 29 -20 hstemhm
          553 185 -152 185 hintmask 00000000
          hintmask 01011000
          556 -5 rmoveto
          -5 -211 rlineto
          186 hlineto
          hintmask 10011000
          4 203 128 10 121 46 56 57 rlinecurve
          -45 209 rlineto
          -23 -49 -87 -18 -97 hhcurveto
          -144 -117 82 235 4 hvcurveto
          215 4 132 68 118 hhcurveto
          110 69 -22 -25 44 hvcurveto
          42 278 rlineto
          hintmask 01010100
          -32 24 -100 25 -129 6 5 223 rcurveline
          -185 hlineto
          hintmask 01100100
          -6 -232 rlineto
          -307 -52 -140 -241 -293 vvcurveto
          hintmask 01011000
          -288 134 -225 286 -51 vhcurveto
          endchar
        </CharString>
        <CharString name="circumflex">
          -412 1249 484 hstem
          31 832 vstem
          207 1249 -48 callgsubr
        </CharString>
        <CharString name="circumflex.cap">
          -415 1677 -21 23 -21 hstemhm
          44 803 hintmask 00000000
          hintmask 01100000
          222 1542 -94 callsubr
          hintmask 10100000
          -50 callsubr
        </CharString>
        <CharString name="colon">
          -637 -1 -21 757 -21 hstemhm
          120 428 hintmask 10100000
          120 189 -25 callsubr
          hintmask 01100000
          736 vmoveto
          -87 callgsubr
          endchar
        </CharString>
        <CharString name="comma">
          -606 -491 -21 hstem
          151 430 vstem
          151 -41 callsubr
          endchar
        </CharString>
        <CharString name="commaaccent">
          -865 -39 callgsubr
          hstem
          37 327 vstem
          37 -104 callsubr
          endchar
        </CharString>
        <CharString name="copyright">
          785 84 129 258 213 566 205 257 126 hstem
          175 142 282 251 923 143 vstem
          175 963 rmoveto
          -487 384 -392 486 486 385 392 487 486 -385 389 -486 -486 -384 -389 -486 vhcurveto
          142 hmoveto
          413 309 336 419 419 309 -336 -413 -414 -309 -336 -419 -419 -309 336 414 vhcurveto
          282 -9 rmoveto
          -259 1 176 -224 274 hhcurveto
          133 124 50 53 61 hvcurveto
          -44 173 rlineto
          -28 -39 -79 -35 -107 hhcurveto
          -145 -106 87 221 2 hvcurveto
          155 1 102 103 145 hhcurveto
          81 90 -25 -30 42 hvcurveto
          37 205 rlineto
          23 -41 -100 32 -113 hhcurveto
          -325 -172 -217 -284 2 hvcurveto
          endchar
        </CharString>
        <CharString name="currency">
          259 160 1236 -1084 254 413 256 hstemhm
          213 1158 -1046 254 405 255 hintmask 00000000
          hintmask 10010000
          213 319 rmoveto
          150 -157 rlineto
          hintmask 01010000
          200 205 rlineto
          -36 65 74 -19 79 hhcurveto
          79 74 20 35 66 hvcurveto
          203 -207 148 158 rlineto
          hintmask 01101100
          -190 196 rlineto
          49 73 29 89 97 vvcurveto
          94 -28 87 -47 72 vhcurveto
          207 209 -150 161 -217 -219 rlineto
          37 -67 -76 21 -80 hhcurveto
          -80 -74 -21 -36 -65 hvcurveto
          -199 207 -148 -160 187 -194 rlineto
          -48 -73 -29 -89 -96 vvcurveto
          -98 29 -89 49 -73 vhcurveto
          176 260 rmoveto
          112 89 94 115 116 85 -94 -112 -111 -85 -96 -116 -115 -89 95 112 vhcurveto
          endchar
        </CharString>
        <CharString name="d">
          75 -16 callsubr
          0 -20 hstemhm
          882 339 hintmask 00000000
          hintmask 01011000
          -77 callsubr
          hintmask 10101000
          -76 callsubr
          endchar
        </CharString>
        <CharString name="dagger">
          -272 1041 246 hstemhm
          370 292 -284 277 hintmask 00000000
          hintmask 10100000
          387 200 rmoveto
          262 hlineto
          14 841 rlineto
          279 247 hlineto
          hintmask 11000000
          -279 -1 rlineto
          371 -292 vlineto
          -1 -371 -277 1 -1 -247 rlineto
          hintmask 10100000
          278 hlineto
          endchar
        </CharString>
        <CharString name="daggerdbl">
          -267 392 247 402 247 hstemhm
          370 270 -270 292 -283 272 -263 275 hintmask 00000000
          hintmask 11100000
          92 392 rmoveto
          hintmask 11000100
          278 hlineto
          18 -748 rlineto
          hintmask 11100000
          253 hlineto
          hintmask 11001000
          21 748 rlineto
          284 247 hlineto
          hintmask 11010000
          -284 1 rlineto
          401 285 247 vlineto
          hintmask 11000100
          -285 hlineto
          2 370 rlineto
          hintmask 11100000
          -293 hlineto
          -1 -370 rlineto
          -277 hlineto
          -1 -247 rlineto
          hintmask 11010000
          278 -401 hlineto
          -278 -1 rlineto
          endchar
        </CharString>
        <CharString name="dcaron">
          401 -16 callsubr
          -170 737 -567 -20 hstemhm
          882 339 175 350 hintmask 00000000
          hintmask 01001100
          -77 callsubr
          hintmask 10100100
          -76 callsubr
          hintmask 00000000
          933 725 rmoveto
          hintmask 00010010
          -81 callsubr
        </CharString>
        <CharString name="dcroat">
          75 -16 callsubr
          0 -20 156 200 hstemhm
          882 339 hintmask 00000000
          hintmask 01011100
          537 -16 rmoveto
          191 103 83 51 51 hvcurveto
          -80 vlineto
          -34 18 -20 37 vhcurveto
          284 1308 128 200 -128 170 -370 -170 -217 -200 217 -42 hlineto
          3 -122 rlineto
          15 -44 -64 13 -80 hhcurveto
          -349 -232 -239 -386 -370 209 -177 243 hvcurveto
          hintmask 10101100
          -76 callsubr
          endchar
        </CharString>
        <CharString name="degree">
          -329 908 199 341 199 hstem
          112 212 329 212 vstem
          488 908 rmoveto
          221 156 159 211 207 -160 162 -217 -216 -160 -159 -210 -207 164 -163 212 hvcurveto
          199 vmoveto
          -87 -77 69 102 104 73 66 91 88 77 -68 -102 -103 -74 -68 -91 hvcurveto
          endchar
        </CharString>
        <CharString name="dieresis">
          -272 1281 394 hstem
          62 910 vstem
          769 1281 -52 callsubr
        </CharString>
        <CharString name="dieresis.cap">
          -268 1582 382 hstem
          53 937 vstem
          785 1582 -77 callgsubr
        </CharString>
        <CharString name="divide">
          111 639 269 hstem
          190 1036 vstem
          725 1029 rmoveto
          126 95 105 120 1 hvcurveto
          119 -77 88 -126 -126 -98 -105 -119 -1 vhcurveto
          -119 83 -89 123 vhcurveto
          -535 -390 rmoveto
          1036 269 -1036 hlineto
          327 -603 rmoveto
          -119 83 -89 122 127 95 105 119 vhcurveto
          119 1 -78 88 -125 hhcurveto
          -126 -99 -104 -119 hvcurveto
          endchar
        </CharString>
        <CharString name="dollar">
          103 8 -21 25 -21 1538 -20 27 -20 hstemhm
          561 266 -204 142 hintmask 00000000
          hintmask 01010100
          216 78 rmoveto
          hintmask 01011000
          47 -30 138 -42 164 -15 -8 -216 rcurveline
          hintmask 10010100
          205 hlineto
          7 212 rlineto
          312 22 171 172 254 vvcurveto
          239 -156 116 -262 118 vhcurveto
          -184 84 -79 50 92 vvcurveto
          77 66 51 144 133 143 -49 -48 61 vhcurveto
          59 286 rlineto
          hintmask 01011000
          -49 28 -120 47 -185 10 9 227 rcurveline
          hintmask 01100100
          -204 hlineto
          -9 -234 rlineto
          -251 -33 -163 -137 -238 vvcurveto
          -245 163 -135 194 -92 vhcurveto
          227 -108 82 -38 -97 vvcurveto
          -70 callsubr
          endchar
        </CharString>
        <CharString name="dotaccent">
          -773 1279 398 hstem
          53 427 vstem
          259 1279 -96 callgsubr
        </CharString>
        <CharString name="dotaccent.cap">
          -773 1596 367 hstem
          66 401 vstem
          259 1596 -22 callsubr
        </CharString>
        <CharString name="dotlessi">
          -616 28 callsubr
          159 372 vstem
          159 hmoveto
          8 callgsubr
        </CharString>
        <CharString name="dotlessj">
          -12 callsubr
          hstemhm
          -104 635 21 callgsubr
          159 2 rmoveto
          hintmask 10110000
          -71 callgsubr
          endchar
        </CharString>
        <CharString name="e">
          -63 callsubr
          hstem
          85 1051 vstem
          85 575 -94 callgsubr
        </CharString>
        <CharString name="eacute">
          -63 callsubr
          501 -21 6 callsubr
          -635 582 hintmask 00010100
          674 1238 -97 callgsubr
          hintmask 11101000
          -416 -821 -94 callgsubr
        </CharString>
        <CharString name="ebreve">
          -63 callsubr
          130 243 6 callsubr
          -868 770 hintmask 11101000
          85 575 -107 callgsubr
          hintmask 00010100
          -139 618 -95 callsubr
        </CharString>
        <CharString name="ecaron">
          -63 callsubr
          101 483 6 callsubr
          -903 832 hintmask 00010100
          538 1257 -78 callsubr
          hintmask 11101000
          -148 -1052 -94 callgsubr
        </CharString>
        <CharString name="ecircumflex">
          -63 callsubr
          93 484 6 callsubr
          -898 832 hintmask 00010100
          414 1249 -95 callgsubr
          hintmask 11101000
          -153 -788 -94 callgsubr
        </CharString>
        <CharString name="edieresis">
          -63 callsubr
          125 394 6 callsubr
          -939 910 hintmask 00010100
          904 1281 -98 callgsubr
          hintmask 11101000
          -301 -706 -94 callgsubr
        </CharString>
        <CharString name="edotaccent">
          -63 callsubr
          123 398 6 callsubr
          -704 427 hintmask 11101000
          85 575 -107 callgsubr
          hintmask 00010100
          -155 611 -96 callgsubr
        </CharString>
        <CharString name="egrave">
          -63 callsubr
          501 -21 6 callsubr
          -938 587 hintmask 11101000
          85 575 -107 callgsubr
          hintmask 00010100
          -177 554 -90 callsubr
        </CharString>
        <CharString name="eight">
          96 -16 243 1113 225 hstemhm
          118 1175 -393 325 hintmask 00000000
          hintmask 11100000
          118 397 rmoveto
          -252 225 -161 373 332 248 162 279 -3 vhcurveto
          -2 193 -151 115 -169 92 rrcurveto
          hintmask 11010000
          181 86 73 148 143 vvcurveto
          209 -183 154 -343 -344 -189 -180 -222 -188 100 -118 127 -87 vhcurveto
          hintmask 11100000
          -200 -95 -75 -137 -141 vvcurveto
          hintmask 11010000
          633 541 rmoveto
          -135 72 -107 73 111 vvcurveto
          77 75 69 120 125 71 -64 -89 vhcurveto
          2 -104 -43 -92 -108 -53 rrcurveto
          -285 -524 rmoveto
          111 62 70 91 52 vhcurveto
          159 -77 141 -65 -118 vvcurveto
          -99 -94 -61 -113 -175 -71 86 101 vhcurveto
          endchar
        </CharString>
        <CharString name="ellipsis">
          688 -1 -21 hstem
          120 1753 vstem
          1446 189 rmoveto
          -120 84 -91 122 126 96 1 callsubr
          vhcurveto
          120 -78 90 -125 -127 2 callgsubr
          1 vhcurveto
          -663 hmoveto
          15 callgsubr
          83 -91 123 hhcurveto
          126 95 1 callsubr
          hvcurveto
          120 -78 90 -125 -126 2 callgsubr
          vhcurveto
          -663 hmoveto
          -87 callgsubr
          endchar
        </CharString>
        <CharString name="emacron">
          -63 callsubr
          248 238 6 callsubr
          -793 619 hintmask 11101000
          85 575 -107 callgsubr
          hintmask 00010100
          -450 736 -27 callsubr
          endchar
        </CharString>
        <CharString name="emdash">
          1116 626 278 hstem
          248 1926 vstem
          248 626 rmoveto
          1926 278 -1926 hlineto
          endchar
        </CharString>
        <CharString name="endash">
          402 626 278 hstem
          248 1212 vstem
          248 626 rmoveto
          1212 278 -1212 hlineto
          endchar
        </CharString>
        <CharString name="eng">
          76 -507 235 -214 -21 528 -21 1139 -20 39 -20 hstemhm
          163 1069 hintmask 00000000
          hintmask 01101100
          163 hmoveto
          375 786 hlineto
          55 55 87 23 46 1 rrcurveto
          101 2 30 -51 -166 vvcurveto
          -677 vlineto
          hintmask 10101100
          -209 -35 -36 -89 -34 -56 8 8 -21 vhcurveto
          -231 vlineto
          -12 49 74 -8 105 hhcurveto
          234 148 159 330 hvcurveto
          736 vlineto
          -1 334 -120 111 -238 -5 -141 -3 -145 -78 -72 -59 rrcurveto
          hintmask 01110100
          -9 121 rlineto
          -343 hlineto
          endchar
        </CharString>
        <CharString name="eogonek">
          -85 -495 -21 500 262 -241 -21 24 -21 496 185 249 239 6 callsubr
          hintmask 00000000
          hintmask 10011110
          85 575 rmoveto
          hintmask 10101110
          -370 200 -221 368 25 24 2 1 24 vhcurveto
          -98 -63 -83 -101 5 -127 rrcurveto
          -131 3 132 -81 146 hhcurveto
          104 86 24 43 68 -10 callsubr
          -38 -37 -8 -34 hhcurveto
          -72 -58 27 65 -3 hvcurveto
          -2 100 70 79 91 79 41 18 32 19 24 19 rrcurveto
          hintmask 11001110
          -57 197 rlineto
          -30 -55 -141 -28 -110 hhcurveto
          -167 -101 67 170 -17 hvcurveto
          669 hlineto
          7 49 5 78 83 vvcurveto
          366 -3 -233 97 -243 hhcurveto
          hintmask 10011110
          -363 -209 -249 -332 hvcurveto
          373 93 rmoveto
          189 19 67 60 105 hhcurveto
          113 40 -83 -166 -9 hvcurveto
          endchar
        </CharString>
        <CharString name="equal">
          11 callsubr
          253 904 rmoveto
          924 251 -924 hlineto
          -760 vmoveto
          924 252 -924 hlineto
          endchar
        </CharString>
        <CharString name="estimated">
          75 -16 163 465 156 425 163 hstem
          108 342 499 324 vstem
          450 242 rmoveto
          370 812 vlineto
          11 51 0 83 86 vvcurveto
          -11 329 -232 200 -295 -5 rrcurveto
          -426 -7 -201 -286 -392 vvcurveto
          -430 229 -257 398 194 183 70 61 85 vhcurveto
          -70 151 rlineto
          -55 -73 -140 -64 -165 hhcurveto
          -118 -105 26 69 -76 hvcurveto
          526 vmoveto
          328 vlineto
          68 70 94 29 107 hhcurveto
          104 72 -23 -36 52 hvcurveto
          -366 vlineto
          endchar
        </CharString>
        <CharString name="eth">
          15 -27 257 681 238 0 -20 hstemhm
          84 1170 29 callsubr
          84 550 rmoveto
          -342 225 -235 354 316 275 205 487 373 -199 368 -319 201 vhcurveto
          57 71 63 84 0 vvcurveto
          -167 115 rlineto
          0 -68 -99 -58 -77 vhcurveto
          -90 49 -76 24 -120 35 -60 -192 rcurveline
          73 -22 70 -36 63 -39 -125 -160 rcurveline
          164 -114 120 161 104 -81 83 -102 44 -121 rlinecurve
          27 -49 -65 19 -82 hhcurveto
          -341 -192 -257 -342 hvcurveto
          583 -320 rmoveto
          -112 -81 93 213 hvcurveto
          hintmask 11010000
          248 79 127 125 88 75 -44 -46 30 vhcurveto
          4 -51 0 -122 -56 vvcurveto
          hintmask 10110000
          -252 -98 -110 -110 vhcurveto
          endchar
        </CharString>
        <CharString name="exclam">
          -637 -1 29 callgsubr
          186 590 -66 callgsubr
          endchar
        </CharString>
        <CharString name="exclamdbl">
          8 -1 -21 hstemhm
          116 428 226 428 hintmask 11000000
          182 590 -66 callgsubr
          hintmask 10100000
          720 401 -66 callgsubr
          endchar
        </CharString>
        <CharString name="exclamdown">
          -637 1345 21 hstem
          113 428 vstem
          475 754 rmoveto
          -314 hlineto
          -40 -1190 rlineto
          407 hlineto
          13 1591 rmoveto
          120 -1 -83 91 -122 hhcurveto
          -127 -95 -107 -121 -120 78 -90 126 126 99 107 120 -1 hvcurveto
          endchar
        </CharString>
        <CharString name="f">
          -425 -32 callsubr
          hstem
          79 805 vstem
          222 hmoveto
          -106 callgsubr
          endchar
        </CharString>
        <CharString name="f_f">
          456 -32 callsubr
          hstemhm
          79 805 76 805 hintmask 11110000
          222 hmoveto
          -106 callgsubr
          hintmask 11101000
          881 -897 -103 callgsubr
          endchar
        </CharString>
        <CharString name="f_f_i">
          -92 callsubr
        </CharString>
        <CharString name="f_f_l">
          1154 -32 callsubr
          hstemhm
          79 805 76 805 160 371 hintmask 10000100
          1925 hmoveto
          -26 callgsubr
          hintmask 11110000
          -1703 -1662 -103 callgsubr
          hintmask 11101000
          881 -897 -103 callgsubr
          endchar
        </CharString>
        <CharString name="f_i">
          265 21 -21 897 243 0 -20 159 398 -245 252 hstemhm
          79 33 callsubr
          hintmask 10100001
          1040 hmoveto
          -68 callgsubr
          hintmask 00010010
          -89 callgsubr
          hintmask 11001100
          -1007 -53 callgsubr
          endchar
        </CharString>
        <CharString name="f_l">
          272 -32 callsubr
          hstemhm
          79 805 160 371 hintmask 10001000
          1044 hmoveto
          -26 callgsubr
          hintmask 11110000
          -822 -1662 -103 callgsubr
          endchar
        </CharString>
        <CharString name="ffi_dflt">
          -92 callsubr
        </CharString>
        <CharString name="fi_trk">
          265 21 -21 897 243 0 -20 159 398 -245 252 hstemhm
          79 33 callsubr
          hintmask 10100001
          1040 hmoveto
          -68 callgsubr
          hintmask 00010010
          -89 callgsubr
          hintmask 11001100
          -1007 -53 callgsubr
          endchar
        </CharString>
        <CharString name="five">
          14 -365 266 519 264 267 301 hstem
          172 1007 vstem
          173 -97 rmoveto
          -1 -254 rlineto
          -10 43 71 -4 35 hhcurveto
          528 330 246 362 276 -156 165 -289 -79 -87 -14 -26 -84 hvcurveto
          31 307 rlineto
          587 hlineto
          32 301 rlineto
          -885 hlineto
          -63 -863 66 -34 rlineto
          32 90 111 33 90 hhcurveto
          180 -1 76 -64 -126 vvcurveto
          -190 -197 -138 -348 -27 -26 1 1 -28 vhcurveto
          endchar
        </CharString>
        <CharString name="florin">
          -110 893 247 282 262 -2 -21 hstemhm
          203 920 29 callsubr
          250 -356 rmoveto
          375 hlineto
          111 1249 rlineto
          260 hlineto
          20 247 rlineto
          -260 hlineto
          7 62 rlineto
          hintmask 11010000
          147 15 69 73 102 hhcurveto
          76 53 -11 -16 23 hvcurveto
          hintmask 10110000
          22 266 rlineto
          hintmask 11010000
          9 -24 -91 14 -91 hhcurveto
          -239 -257 -103 -344 -31 hvcurveto
          -9 -97 -160 -33 -18 -214 rlineto
          157 hlineto
          endchar
        </CharString>
        <CharString name="four">
          146 0 262 hstem
          80 1319 vstem
          80 132 rmoveto
          86 -132 rlineto
          655 -376 356 376 222 262 -222 372 -318 hlineto
          -38 -372 rlineto
          -338 hlineto
          99 169 419 774 -290 137 rlineto
          -77 hlineto
          endchar
        </CharString>
        <CharString name="foursuperior">
          -101 853 215 hstem
          692 299 vstem
          122 853 -69 callgsubr
          endchar
        </CharString>
        <CharString name="fraction">
          -272 21 -21 1530 -20 hstem
          114 805 vstem
          114 hmoveto
          -12 callgsubr
        </CharString>
        <CharString name="g">
          -62 callsubr
          hstemhm
          67 1271 hintmask 00000000
          hintmask 11101100
          67 -171 -93 callsubr
          hintmask 11110100
          -60 callsubr
          hintmask 11101100
          -103 callsubr
          endchar
        </CharString>
        <CharString name="gbreve">
          -62 callsubr
          131 243 hstemhm
          67 1271 -1071 770 hintmask 00000000
          hintmask 11101010
          67 -171 -93 callsubr
          hintmask 11110010
          -60 callsubr
          hintmask 11101010
          -103 callsubr
          hintmask 00000101
          214 1390 -95 callsubr
        </CharString>
        <CharString name="gcircumflex">
          -62 callsubr
          94 484 hstemhm
          67 1271 -1100 832 hintmask 00000101
          414 1249 -95 callgsubr
          hintmask 00000000
          -171 -1534 -93 callsubr
          hintmask 11101010
          -60 callsubr
          hintmask 11110010
          -103 callsubr
          endchar
        </CharString>
        <CharString name="gcommaaccent">
          -62 callsubr
          115 600 hstemhm
          67 1271 -896 382 hintmask 00000101
          667 1270 rmoveto
          157 133 rlineto
          77 vlineto
          -54 10 -35 83 71 vvcurveto
          89 17 31 22 34 vhcurveto
          21 vlineto
          -144 51 rlineto
          -75 -24 -113 -123 -172 vvcurveto
          -176 119 -97 106 -8 vhcurveto
          hintmask 00000000
          -600 -1441 -93 callsubr
          hintmask 11101010
          -60 callsubr
          hintmask 11110010
          -103 callsubr
          endchar
        </CharString>
        <CharString name="gdotaccent">
          -62 callsubr
          124 18 callgsubr
          67 1271 -907 427 hintmask 00000000
          hintmask 11101010
          67 -171 -93 callsubr
          hintmask 11110010
          -60 callsubr
          hintmask 11101010
          -103 callsubr
          hintmask 00000101
          198 1383 -96 callgsubr
        </CharString>
        <CharString name="germandbls">
          107 5 -21 37 -21 1346 233 hstemhm
          41 1331 -643 325 21 callgsubr
          176 hmoveto
          374 953 hlineto
          295 88 98 141 92 50 -52 -76 vhcurveto
          hintmask 10101000
          -172 -192 -18 -187 -234 258 -59 -185 vvcurveto
          -106 -86 -27 -68 -62 -63 25 12 -19 vhcurveto
          -247 vlineto
          -17 29 103 -19 107 hhcurveto
          222 222 78 308 hvcurveto
          323 -318 85 123 121 233 6 243 vvcurveto
          174 -165 134 -293 -308 -261 -122 -307 -67 vhcurveto
          -152 -30 rlineto
          -223 135 vlineto
          endchar
        </CharString>
        <CharString name="grave">
          -606 1657 -21 hstem
          65 587 vstem
          483 1222 -90 callsubr
        </CharString>
        <CharString name="grave.cap">
          -629 1687 -21 hstem
          55 522 vstem
          404 1534 -52 callgsubr
        </CharString>
        <CharString name="greater">
          69 213 1143 hstem
          212 944 vstem
          1156 853 rmoveto
          -944 503 rlineto
          -323 vlineto
          513 -259 -513 -227 rlineto
          -334 vlineto
          944 486 rlineto
          endchar
        </CharString>
        <CharString name="greaterequal">
          70 -2 236 hstem
          232 969 vstem
          1201 891 rmoveto
          -969 420 rlineto
          -303 vlineto
          554 -204 -554 -199 rlineto
          -293 vlineto
          969 416 rlineto
          -494 vmoveto
          -969 -236 969 hlineto
          endchar
        </CharString>
        <CharString name="guillemotleft">
          722 56 1118 hstemhm
          221 750 67 750 hintmask 11000000
          221 473 -41 callgsubr
          hintmask 10100000
          817 -284 -41 callgsubr
          endchar
        </CharString>
        <CharString name="guillemotright">
          722 56 1118 hstemhm
          234 750 66 750 hintmask 11000000
          984 757 -34 callgsubr
          664 417 rlineto
          816 284 -34 callgsubr
          rlineto
          hintmask 10100000
          664 417 rlineto
          endchar
        </CharString>
        <CharString name="guilsinglleft">
          -94 56 1118 hstem
          221 750 vstem
          221 473 -41 callgsubr
          endchar
        </CharString>
        <CharString name="guilsinglright">
          -94 56 1118 hstem
          233 750 vstem
          983 757 -34 callgsubr
          664 417 rlineto
          endchar
        </CharString>
        <CharString name="h">
          -7 callgsubr
          hstem
          159 1071 vstem
          -72 callgsubr
          428 15 callsubr
          endchar
        </CharString>
        <CharString name="hbar">
          -7 callgsubr
          159 202 hstem
          30 1200 vstem
          -72 callgsubr
          63 213 202 -213 163 -371 -163 -129 -202 129 vlineto
          endchar
        </CharString>
        <CharString name="hcircumflex">
          -7 callgsubr
          541 -21 hstemhm
          159 1071 -824 803 hintmask 11010000
          -72 callgsubr
          428 15 callsubr
          hintmask 00000000
          425 -120 -94 callsubr
          hintmask 00101000
          -50 callsubr
        </CharString>
        <CharString name="hungarumlaut">
          -265 1705 -21 27 -21 hstemhm
          27 1041 hintmask 00000000
          hintmask 01100000
          171 1280 -49 callsubr
          hintmask 10100000
          -40 callgsubr
          endchar
        </CharString>
        <CharString name="hungarumlaut.cap">
          -338 1679 -21 hstem
          41 998 vstem
          220 1532 -74 callgsubr
        </CharString>
        <CharString name="hyphen">
          -13 callsubr
        </CharString>
        <CharString name="i">
          -80 callsubr
        </CharString>
        <CharString name="i.cy">
          -80 callsubr
        </CharString>
        <CharString name="i.dot">
          -80 callsubr
        </CharString>
        <CharString name="i.uc">
          -547 -67 callgsubr
          94 367 hstemhm
          175 401 -391 384 hintmask 11001000
          -69 callsubr
          hintmask 00110000
          183 74 -22 callsubr
        </CharString>
        <CharString name="iacute">
          -616 21 -61 callgsubr
          31 callgsubr
          159 372 -338 582 hintmask 00101000
          366 1237 -97 callgsubr
          hintmask 11010000
          -34 -1395 3 callsubr
        </CharString>
        <CharString name="ibreve">
          -616 21 -61 callgsubr
          165 243 hstemhm
          -41 770 -570 372 hintmask 11001000
          159 hmoveto
          -68 callgsubr
          hintmask 00110000
          186 145 -95 callsubr
        </CharString>
        <CharString name="icircumflex">
          -616 21 -61 callgsubr
          128 484 hstemhm
          -71 832 -602 372 hintmask 00110000
          105 1248 -95 callgsubr
          hintmask 11001000
          230 -1362 3 callsubr
        </CharString>
        <CharString name="idieresis">
          -616 21 -61 callgsubr
          160 394 hstemhm
          -96 880 -625 372 hintmask 00110000
          584 1280 rmoveto
          115 85 94 111 112 -66 77 -117 -113 -89 -93 -111 -111 72 -79 113 hvcurveto
          -495 hmoveto
          115 84 94 111 112 -66 77 -116 -114 -88 -93 -111 -111 72 -79 113 hvcurveto
          hintmask 11001000
          70 -1280 3 callsubr
        </CharString>
        <CharString name="igrave">
          -616 21 -61 callgsubr
          31 callgsubr
          -111 587 -317 372 hintmask 11001000
          159 hmoveto
          -68 callgsubr
          hintmask 00110000
          148 81 -90 callsubr
        </CharString>
        <CharString name="ij">
          61 28 callgsubr
          528 -61 callgsubr
          159 18 callgsubr
          142 -24 callsubr
          55 635 -395 427 hintmask 0000000000000000
          hintmask 0101000100000000
          849 2 rmoveto
          hintmask 1001000100000000
          -71 callgsubr
          hintmask 0011001000000000
          -690 -1140 rmoveto
          -68 callgsubr
          hintmask 0000110000000000
          -89 callgsubr
          hintmask 0000100010000000
          684 hmoveto
          -105 callsubr
          endchar
        </CharString>
        <CharString name="imacron">
          -616 21 -61 callgsubr
          283 238 hstemhm
          35 619 -495 372 hintmask 11001000
          159 hmoveto
          -68 callgsubr
          hintmask 00110000
          -124 263 -27 callsubr
          endchar
        </CharString>
        <CharString name="infinity">
          795 145 255 -250 248 427 259 -253 248 hstemhm
          74 309 1334 311 hintmask 00000000
          hintmask 01011000
          598 150 rmoveto
          182 2 140 99 104 121 rrcurveto
          hintmask 10010100
          -129 97 141 -98 254 hhcurveto
          319 193 210 258 251 -154 218 -356 -3 hvcurveto
          -184 -1 -147 -104 -109 -123 rrcurveto
          hintmask 01101000
          -100 130 -144 102 -250 1 rrcurveto
          -316 1 -194 -206 -255 vvcurveto
          hintmask 01011000
          -251 165 -228 359 5 vhcurveto
          hintmask 10010100
          604 520 rmoveto
          115 92 93 46 90 hhcurveto
          161 79 -92 -114 -138 -82 -87 -118 -133 -110 136 134 -72 hvcurveto
          hintmask 01101000
          -819 -56 rmoveto
          130 81 81 115 132 115 -134 -133 73 vhcurveto
          -114 -95 -96 -46 -89 hhcurveto
          -160 -76 103 113 hvcurveto
          endchar
        </CharString>
        <CharString name="integral">
          -219 -518 244 1722 236 -137 -20 -21 callgsubr
          321 104 323 hintmask 00000000
          hintmask 10111000
          194 -175 rmoveto
          -103 -212 rlineto
          -75 49 162 -56 122 hhcurveto
          357 144 261 255 -4 hvcurveto
          -7 428 -414 383 -6 387 rrcurveto
          hintmask 11011000
          160 -3 74 92 140 hhcurveto
          86 76 -54 -30 14 hvcurveto
          hintmask 10111000
          131 183 rlineto
          hintmask 11011000
          84 -50 -141 53 -135 hhcurveto
          -361 -157 -225 -278 5 hvcurveto
          6 -423 413 -393 6 -390 rrcurveto
          -143 3 -42 -106 -155 hhcurveto
          hintmask 10111000
          -84 -101 61 38 -25 hvcurveto
          endchar
        </CharString>
        <CharString name="iogonek">
          -616 -495 -21 537 -61 callgsubr
          hstem
          159 159 vstem
          348 1279 rmoveto
          -105 callsubr
          -189 -1279 rmoveto
          82 -45 callsubr
          50 1140 -372 hlineto
          endchar
        </CharString>
        <CharString name="itilde">
          -616 21 -61 callgsubr
          179 -39 callsubr
          -120 920 -641 372 hintmask 11000010
          159 hmoveto
          -68 callgsubr
          hintmask 00000000
          -146 -59 callgsubr
        </CharString>
        <CharString name="j">
          -12 callsubr
          159 18 callgsubr
          -104 635 -395 427 hintmask 00000000
          hintmask 01101000
          159 2 rmoveto
          hintmask 10101000
          -71 callgsubr
          hintmask 00010100
          183 -75 callgsubr
          endchar
        </CharString>
        <CharString name="jcircumflex">
          -12 callsubr
          129 484 hstemhm
          -104 635 -603 832 hintmask 00000000
          hintmask 01101000
          159 2 rmoveto
          hintmask 10101000
          -71 callgsubr
          hintmask 00010100
          -55 109 -48 callgsubr
        </CharString>
        <CharString name="k">
          -19 28 callsubr
          159 1147 vstem
          159 hmoveto
          -44 callsubr
        </CharString>
        <CharString name="kcommaaccent">
          -19 -40 callsubr
          1140 -20 hstemhm
          159 1147 -786 -1 callsubr
          520 -104 callsubr
          hintmask 00111000
          -589 84 rmoveto
          -44 callsubr
        </CharString>
        <CharString name="kgreenlandic">
          -24 28 callsubr
          163 1142 vstem
          163 hmoveto
          371 162 hlineto
          111 vlineto
          107 125 243 -398 rlineto
          421 hlineto
          -425 678 396 462 rlineto
          -411 hlineto
          -338 -458 7 147 rlineto
          311 -370 vlineto
          endchar
        </CharString>
        <CharString name="l">
          -609 21 -21 hstem
          163 371 vstem
          163 hmoveto
          -26 callgsubr
          endchar
        </CharString>
        <CharString name="lacute">
          -609 21 -21 1525 -20 182 -21 hstemhm
          163 371 -355 522 hintmask 11010000
          163 hmoveto
          371 1525 -371 hlineto
          hintmask 00101000
          189 9 -100 callgsubr
          endchar
        </CharString>
        <CharString name="lcaron">
          -255 21 -21 986 737 hstemhm
          163 371 165 350 hintmask 10100000
          163 hmoveto
          -26 callgsubr
          hintmask 00000000
          737 -676 rmoveto
          hintmask 01010000
          -81 callsubr
        </CharString>
        <CharString name="lcommaaccent">
          -609 -40 callsubr
          hstemhm
          163 371 -342 327 hintmask 11001000
          192 -104 callsubr
          hintmask 00110000
          -257 84 rmoveto
          -26 callgsubr
          endchar
        </CharString>
        <CharString name="ldot">
          -237 21 -21 663 -21 hstemhm
          163 371 129 428 hintmask 10100000
          163 hmoveto
          -26 callgsubr
          hintmask 01010000
          500 -809 -25 callsubr
          endchar
        </CharString>
        <CharString name="less">
          70 213 1143 hstem
          211 944 vstem
          211 699 rmoveto
          944 -486 rlineto
          334 vlineto
          -513 227 513 259 rlineto
          323 vlineto
          -944 -503 rlineto
          endchar
        </CharString>
        <CharString name="lessequal">
          70 -2 236 hstem
          167 969 vstem
          167 728 rmoveto
          969 -416 rlineto
          293 vlineto
          -554 199 554 204 rlineto
          303 vlineto
          -969 -420 rlineto
          -893 vmoveto
          969 236 -969 hlineto
          endchar
        </CharString>
        <CharString name="logicalnot">
          172 604 248 hstem
          962 272 vstem
          244 604 rmoveto
          718 -305 272 553 -990 hlineto
          endchar
        </CharString>
        <CharString name="lozenge">
          69 19 -21 1551 -20 hstem
          69 1234 vstem
          683 -2 rmoveto
          5 hlineto
          615 770 rlineto
          13 vlineto
          -615 768 rlineto
          -4 hlineto
          -615 -768 rlineto
          -13 vlineto
          615 -353 rmoveto
          -272 356 rlineto
          5 vlineto
          272 340 rlineto
          3 hlineto
          273 -340 rlineto
          -3 vlineto
          -273 -358 rlineto
          endchar
        </CharString>
        <CharString name="lslash">
          -609 21 -21 hstem
          22 686 vstem
          163 hmoveto
          371 826 hlineto
          174 64 rlineto
          236 vlineto
          -174 -66 rlineto
          602 -371 -744 vlineto
          -141 -53 rlineto
          -226 vlineto
          141 51 rlineto
          endchar
        </CharString>
        <CharString name="m">
          759 21 -61 callgsubr
          38 -20 0 callgsubr
          29 callsubr
          -67 callsubr
          hintmask 11010000
          -36 callsubr
          endchar
        </CharString>
        <CharString name="macron">
          -581 1404 238 hstem
          53 619 vstem
          53 1404 -27 callsubr
          endchar
        </CharString>
        <CharString name="macron.cap">
          -581 1675 234 hstem
          53 619 vstem
          53 1675 -28 callgsubr
          endchar
        </CharString>
        <CharString name="minus">
          -13 callsubr
        </CharString>
        <CharString name="minute">
          -616 1190 660 hstem
          139 464 vstem
          139 1190 -8 callsubr
          endchar
        </CharString>
        <CharString name="mu">
          -73 callgsubr
        </CharString>
        <CharString name="multiply">
          96 206 1145 hstem
          149 1106 vstem
          335 206 rmoveto
          366 387 366 -387 187 186 -378 385 379 395 -186 179 -366 -399 -368 399 -186 -179 379 -397 -379 -383 rlineto
          endchar
        </CharString>
        <CharString name="n">
          74 21 -61 callgsubr
          38 -20 0 callgsubr
          29 callsubr
          163 hmoveto
          -92 callgsubr
          hintmask 11010000
          -36 callsubr
          endchar
        </CharString>
        <CharString name="nacute">
          -7 callgsubr
          518 -21 0 callgsubr
          120 582 hintmask 00101000
          798 1237 -97 callgsubr
          hintmask 00000000
          -462 -1395 rmoveto
          -92 callgsubr
          hintmask 11010000
          -36 callsubr
          endchar
        </CharString>
        <CharString name="napostrophe">
          74 -40 callsubr
          1158 -20 0 callgsubr
          19 -1 callsubr
          524 -104 callsubr
          hintmask 00000000
          -589 84 rmoveto
          -92 callgsubr
          hintmask 00111000
          -36 callsubr
          endchar
        </CharString>
        <CharString name="nbspace">
          -628 endchar
        </CharString>
        <CharString name="ncaron">
          -7 callgsubr
          118 483 0 callgsubr
          -148 832 hintmask 00101000
          662 1256 -78 callsubr
          hintmask 00000000
          -194 -1626 rmoveto
          -92 callgsubr
          hintmask 11010000
          -36 callsubr
          endchar
        </CharString>
        <CharString name="ncommaaccent">
          74 -40 callsubr
          1158 -20 0 callgsubr
          19 -1 callsubr
          524 -104 callsubr
          hintmask 00000000
          -589 84 rmoveto
          -92 callgsubr
          hintmask 00111000
          -36 callsubr
          endchar
        </CharString>
        <CharString name="nine">
          149 206 275 535 254 hstem
          123 1217 vstem
          343 -204 rmoveto
          88 -212 rlineto
          364 46 545 384 618 vvcurveto
          378 -237 260 -349 -416 -215 -247 -325 -281 177 -211 253 177 110 68 40 28 vhcurveto
          -65 191 rlineto
          -10 -31 -26 -14 -75 hhcurveto
          -101 -81 85 202 156 81 92 141 169 70 -184 -275 -2 hvcurveto
          -3 -294 -211 -371 -391 -96 rrcurveto
          endchar
        </CharString>
        <CharString name="notequal">
          11 callsubr
          409 179 rmoveto
          210 hlineto
          71 216 rlineto
          487 252 -404 hlineto
          84 257 rlineto
          320 251 -234 hlineto
          67 191 rlineto
          -212 hlineto
          -61 -191 rlineto
          -484 -251 400 hlineto
          -85 -257 rlineto
          -315 -252 229 hlineto
          endchar
        </CharString>
        <CharString name="ntilde">
          74 21 -61 callgsubr
          38 -20 161 -39 callsubr
          163 342 -192 920 hintmask 00000000
          hintmask 10100010
          163 hmoveto
          -92 callgsubr
          hintmask 11000010
          -36 callsubr
          hintmask 00000000
          283 192 rmoveto
          hintmask 00000101
          -7 callsubr
          hintmask 00001001
          -27 callgsubr
          hintmask 00010001
          162 111 -73 callsubr
          hintmask 00000101
          -6 callgsubr
          hintmask 00010001
          -66 callsubr
        </CharString>
        <CharString name="numbersign">
          403 21 -21 305 248 285 237 hstem
          206 1305 vstem
          354 hmoveto
          299 hlineto
          30 305 rlineto
          267 hlineto
          -28 -305 rlineto
          294 hlineto
          29 305 rlineto
          222 248 -198 hlineto
          28 285 rlineto
          214 237 -191 hlineto
          29 298 rlineto
          -299 hlineto
          -28 -298 rlineto
          -263 hlineto
          29 298 rlineto
          -302 hlineto
          -29 -298 rlineto
          -210 -237 188 hlineto
          -28 -285 rlineto
          -201 -248 177 hlineto
          324 248 rmoveto
          28 285 rlineto
          265 hlineto
          -27 -285 rlineto
          endchar
        </CharString>
        <CharString name="o">
          -45 callgsubr
          hstem
          86 1158 vstem
          -84 callsubr
          endchar
        </CharString>
        <CharString name="oacute">
          -45 callgsubr
          500 -21 -11 callsubr
          -723 582 hintmask 00101000
          694 1237 -97 callgsubr
          hintmask 11010000
          -435 -802 -105 callgsubr
          endchar
        </CharString>
        <CharString name="obreve">
          -45 callgsubr
          129 243 -11 callsubr
          -957 770 hintmask 11010000
          -84 callsubr
          hintmask 00101000
          10 1046 -95 callsubr
        </CharString>
        <CharString name="ocircumflex">
          -45 callgsubr
          92 484 -11 callsubr
          -987 832 hintmask 00101000
          433 1248 -95 callgsubr
          hintmask 11010000
          -171 -769 -105 callgsubr
          endchar
        </CharString>
        <CharString name="odieresis">
          -45 callgsubr
          124 394 -11 callsubr
          -1027 910 hintmask 00101000
          924 1280 -98 callgsubr
          hintmask 11010000
          -320 -687 -105 callgsubr
          endchar
        </CharString>
        <CharString name="oe">
          687 -16 255 -255 266 237 181 231 257 -239 239 hstemhm
          86 1823 hintmask 00000000
          hintmask 10110100
          86 593 rmoveto
          -327 -5 151 -282 422 hhcurveto
          159 134 43 82 99 hvcurveto
          -82 93 128 -43 163 hhcurveto
          202 169 62 61 75 hvcurveto
          hintmask 01110100
          -56 201 rlineto
          -30 -55 -140 -28 -108 hhcurveto
          -168 -101 65 172 -15 hvcurveto
          665 hlineto
          6 49 5 74 83 vvcurveto
          366 -233 97 -242 -156 -125 -46 -80 -93 vhcurveto
          79 -88 -125 47 -172 hhcurveto
          hintmask 10110100
          -343 -241 -197 -366 -5 hvcurveto
          1150 75 rmoveto
          hintmask 10101100
          189 19 67 60 104 hhcurveto
          112 40 -83 -166 -9 hvcurveto
          -907 -429 rmoveto
          -144 -44 155 188 hvcurveto
          hintmask 10110100
          207 45 110 148 145 43 -151 -184 vhcurveto
          hintmask 10101100
          -218 -47 -107 -146 vhcurveto
          endchar
        </CharString>
        <CharString name="ogonek">
          -656 -518 201 -180 -21 hstemhm
          63 503 hintmask 00000000
          hintmask 01100000
          286 -11 rmoveto
          -98 -57 -138 -106 14 -171 8 -120 127 -54 129 1 rrcurveto
          93 88 24 43 57 hvcurveto
          hintmask 10100000
          -3 147 rlineto
          -8 -39 -45 -5 -39 hhcurveto
          -67 -45 19 50 -4 hvcurveto
          -11 116 121 87 116 74 rrcurveto
          endchar
        </CharString>
        <CharString name="ograve">
          -45 callgsubr
          500 -21 -11 callsubr
          -1027 587 hintmask 11010000
          -84 callsubr
          hintmask 00101000
          -28 982 -90 callsubr
        </CharString>
        <CharString name="ohungarumlaut">
          -45 callgsubr
          556 -21 27 -21 -11 callsubr
          -963 1041 hintmask 00000000
          hintmask 00010100
          425 1287 -49 callsubr
          hintmask 00100100
          -40 callgsubr
          hintmask 11001000
          -716 -798 -105 callgsubr
          endchar
        </CharString>
        <CharString name="omacron">
          -45 callgsubr
          247 238 -11 callsubr
          -881 619 hintmask 00101000
          363 1403 -27 callsubr
          hintmask 11010000
          -277 -1048 -105 callgsubr
          endchar
        </CharString>
        <CharString name="one">
          -248 21 -21 hstem
          125 645 vstem
          382 hmoveto
          385 hlineto
          3 1249 -185 29 -87 -72 -241 -115 -132 -31 rlinecurve
          30 -224 76 12 72 12 79 18 rlinecurve
          endchar
        </CharString>
        <CharString name="onehalf">
          1277 -10 250 -219 -21 680 1034 -907 238 -212 -20 717 -20 hstemhm
          432 333 8 805 -101 948 hintmask 0000000000000000
          hintmask 1000100010000000
          1550 -10 -5 callgsubr
          hintmask 1001000010000000
          146 -112 172 -307 vhcurveto
          hintmask 1000100010000000
          18 callsubr
          hintmask 1001000010000000
          -3 callsubr
          hintmask 0010001000000000
          -1078 520 -51 callgsubr
          hintmask 0100010100000000
          341 -1376 rmoveto
          -12 callgsubr
        </CharString>
        <CharString name="onequarter">
          1277 21 -21 187 215 278 1034 -184 -20 hstemhm
          431 333 9 805 414 299 hintmask 01000010
          1422 187 -69 callgsubr
          hintmask 10010100
          -596 -281 rmoveto
          -8 callgsubr
          hintmask 00101000
          -881 -850 -51 callgsubr
          endchar
        </CharString>
        <CharString name="onesuperior">
          -225 680 1034 hstem
          393 333 vstem
          393 680 -51 callgsubr
          endchar
        </CharString>
        <CharString name="ordfeminine">
          -227 664 203 253 152 147 210 hstem
          665 300 vstem
          411 664 rmoveto
          119 114 59 37 33 hvcurveto
          -14 vlineto
          -82 44 6 76 vhcurveto
          168 641 hlineto
          235 -134 83 -279 -161 -214 -74 -36 -38 vhcurveto
          57 -175 rlineto
          32 45 167 43 94 hhcurveto
          122 41 -22 -88 hvcurveto
          -37 vlineto
          -122 -126 -17 -39 -106 hvcurveto
          -112 -43 -87 -93 -134 vvcurveto
          -171 114 -111 185 vhcurveto
          112 203 rmoveto
          -64 -53 41 60 41 12 45 54 32 hvcurveto
          28 52 63 6 78 hhcurveto
          -215 vlineto
          -12 -17 -52 -26 -73 hhcurveto
          endchar
        </CharString>
        <CharString name="ordmasculine">
          -229 663 222 524 223 hstem
          65 305 325 304 vstem
          531 663 rmoveto
          233 230 135 341 5 hvcurveto
          289 5 -159 204 -291 hhcurveto
          -230 -254 -130 -342 -5 hvcurveto
          -299 -3 166 -198 303 hhcurveto
          12 222 rmoveto
          -114 -2 -59 111 166 vvcurveto
          180 67 67 106 2 vhcurveto
          100 3 52 -106 -169 vvcurveto
          -177 -52 -73 -100 -2 vhcurveto
          endchar
        </CharString>
        <CharString name="oslash">
          29 -16 255 -234 -21 31 -21 905 257 -10 -20 30 -20 -11 callsubr
          hintmask 00000000
          hintmask 00100110
          314 -209 rmoveto
          131 -25 82 228 rlineto
          hintmask 01001010
          -7 40 42 -3 46 hhcurveto
          342 242 197 366 5 hvcurveto
          4 249 -87 223 -229 92 89 245 rcurveline
          -133 28 -86 -238 rlineto
          hintmask 00100110
          6 -39 -42 4 -45 hhcurveto
          -342 -242 -197 -366 -6 hvcurveto
          -3 -250 87 -224 229 -91 rrcurveto
          111 306 rmoveto
          -36 62 -16 89 97 vvcurveto
          hintmask 10010010
          207 62 110 149 15 14 -2 -3 13 vhcurveto
          -93 -650 rmoveto
          203 561 rlineto
          35 -61 16 -86 -94 vvcurveto
          -218 -63 -107 -146 -16 -15 2 3 -14 vhcurveto
          endchar
        </CharString>
        <CharString name="otilde">
          -45 callgsubr
          143 -39 callsubr
          86 1158 -1036 920 hintmask 11000100
          -84 callsubr
          hintmask 00000000
          -322 1093 rmoveto
          hintmask 00001010
          -7 callsubr
          hintmask 00010010
          -27 callgsubr
          hintmask 00100010
          162 111 -73 callsubr
          hintmask 00001010
          -6 callgsubr
          hintmask 00100010
          -66 callsubr
        </CharString>
        <CharString name="p">
          7 callsubr
          hstemhm
          159 1140 hintmask 00000000
          hintmask 10101100
          -31 callgsubr
          hintmask 11010100
          -44 callgsubr
          endchar
        </CharString>
        <CharString name="paragraph">
          133 21 -21 1496 215 hstem
          482 283 200 284 vstem
          482 hmoveto
          283 1496 200 hlineto
          1 -1496 rlineto
          284 1691 hlineto
          2 -181 -263 18 -148 hhcurveto
          -423 -187 -172 -291 -333 182 -138 252 hvcurveto
          endchar
        </CharString>
        <CharString name="parenleft">
          -463 1658 -21 hstem
          99 313 vstem
          572 -360 rmoveto
          190 131 rlineto
          -142 121 -208 300 515 vvcurveto
          534 252 314 98 82 vhcurveto
          -190 130 rlineto
          -123 -78 -350 -355 -621 vvcurveto
          -693 362 -306 111 -74 vhcurveto
          endchar
        </CharString>
        <CharString name="parenright">
          -463 -236 21 hstem
          424 313 vstem
          264 1782 rmoveto
          -190 -131 rlineto
          142 -121 208 -300 -515 vvcurveto
          -534 -252 -314 -98 -82 vhcurveto
          190 -130 rlineto
          123 78 350 355 621 vvcurveto
          693 -362 306 -111 74 vhcurveto
          endchar
        </CharString>
        <CharString name="partialdiff">
          119 -30 246 658 224 369 265 hstem
          107 1217 vstem
          107 523 rmoveto
          -306 4 251 -247 297 hhcurveto
          450 215 283 544 475 -238 460 -545 -155 -158 -52 -93 -119 hvcurveto
          118 -200 rlineto
          48 69 108 32 90 hhcurveto
          248 157 -167 -254 48 hvcurveto
          29 -57 -68 23 -109 hhcurveto
          -300 -312 -144 -431 6 hvcurveto
          372 11 rmoveto
          227 -4 80 113 174 hhcurveto
          95 70 -28 -50 68 hvcurveto
          -1 -42 -1 -48 -51 vvcurveto
          -122 -25 -317 -209 -187 -56 139 179 -4 vhcurveto
          endchar
        </CharString>
        <CharString name="percent">
          981 -33 callsubr
          hintmask 0000000000000000
          hintmask 0110111110000000
          521 589 -65 callsubr
          hintmask 1001111110000000
          -61 callsubr
        </CharString>
        <CharString name="period">
          -637 -1 29 callgsubr
          120 189 -25 callsubr
          endchar
        </CharString>
        <CharString name="periodcentered">
          -637 589 29 callgsubr
          120 779 -25 callsubr
          endchar
        </CharString>
        <CharString name="perthousand">
          1946 -33 callsubr
          85 283 312 284 hintmask 1001000001100000
          2273 464 rmoveto
          -260 131 -209 291 1 vhcurveto
          238 1 219 169 305 vvcurveto
          261 -127 209 -294 -2 vhcurveto
          -239 -1 -219 -168 -306 vvcurveto
          283 11 rmoveto
          145 57 88 101 98 56 -98 -147 -145 -56 -88 -102 -97 -57 97 148 vhcurveto
          hintmask 0000000000000000
          -2035 114 -65 callsubr
          hintmask 0110111110000000
          -61 callsubr
        </CharString>
        <CharString name="pi">
          297 -3 -21 874 290 hstem
          21 1562 vstem
          132 127 rmoveto
          204 -151 91 4 68 32 42 32 rlinecurve
          90 79 45 61 12 216 23 450 rcurveline
          240 hlineto
          -57 -568 rlineto
          -198 -20 82 -108 170 hhcurveto
          222 158 129 114 58 hvcurveto
          -110 131 rlineto
          -46 -42 -59 -75 -71 hhcurveto
          -38 -29 33 86 4 hvcurveto
          16 503 rlineto
          21 hlineto
          227 97 102 262 7 hvcurveto
          -196 hlineto
          -54 -18 -35 -21 -82 hhcurveto
          -881 hlineto
          -175 -68 -45 -66 -54 hvcurveto
          -37 -54 -14 -73 -2 -37 126 -95 rcurveline
          39 41 41 41 107 hhcurveto
          70 hlineto
          -44 -363 -14 -123 -25 -109 -105 -85 rlinecurve
          -32 -24 -36 -15 -18 -4 rrcurveto
          endchar
        </CharString>
        <CharString name="plus">
          95 640 271 hstem
          560 279 vstem
          560 247 -53 callsubr
        </CharString>
        <CharString name="plusminus">
          95 0 233 407 271 hstemhm
          233 921 -594 279 hintmask 10100000
          233 hmoveto
          921 233 -921 hlineto
          hintmask 01010000
          327 14 -53 callsubr
        </CharString>
        <CharString name="product">
          410 1245 276 hstem
          69 1577 vstem
          294 -172 rmoveto
          377 1417 368 -1417 376 1417 hlineto
          231 1 rlineto
          276 -1577 -276 vlineto
          225 -1 rlineto
          endchar
        </CharString>
        <CharString name="q">
          76 -485 -21 511 -21 916 256 -16 -20 36 -20 hstemhm
          85 1138 hintmask 00000000
          hintmask 11001100
          85 531 rmoveto
          -370 211 -177 243 164 99 61 50 56 vhcurveto
          -5 -234 rlineto
          -367 370 vlineto
          hintmask 11010100
          1646 vlineto
          hintmask 11001100
          -268 -36 rlineto
          27 -69 -104 25 -114 hhcurveto
          -349 -234 -239 -386 hvcurveto
          581 -270 rmoveto
          -118 -74 75 213 1 hvcurveto
          hintmask 11100100
          235 1 91 116 130 hhcurveto
          67 58 -9 -23 31 hvcurveto
          -554 vlineto
          hintmask 11001100
          -28 -40 -76 -25 -71 hhcurveto
          endchar
        </CharString>
        <CharString name="question">
          -243 -1 -21 1586 282 hstem
          106 906 vstem
          329 535 rmoveto
          284 hlineto
          -20 76 -20 55 4 60 rrcurveto
          12 311 423 -20 400 vvcurveto
          258 3 -188 171 -392 hhcurveto
          -128 -151 -29 -33 -50 hvcurveto
          -268 vlineto
          18 43 83 30 110 hhcurveto
          200 72 -71 -114 -248 -361 -29 2 -315 hvcurveto
          1 -125 40 -73 33 -54 rrcurveto
          -45 -357 rmoveto
          -114 1 82 -86 117 hhcurveto
          121 94 102 114 hvcurveto
          115 -1 -77 85 -120 hhcurveto
          -120 -98 -101 -115 1 hvcurveto
          endchar
        </CharString>
        <CharString name="questiondown">
          -243 -322 282 1565 21 hstem
          45 906 vstem
          728 989 rmoveto
          -284 hlineto
          20 -76 20 -55 -4 -60 rrcurveto
          -12 -311 -423 20 -400 vvcurveto
          -258 -3 188 -171 392 hhcurveto
          128 151 29 33 50 hvcurveto
          268 vlineto
          -18 -43 -83 -30 -110 hhcurveto
          -200 -72 71 114 248 361 29 -2 315 hvcurveto
          -1 125 -40 73 -33 54 rrcurveto
          45 357 rmoveto
          114 -1 -82 86 -117 hhcurveto
          -121 -94 -102 -114 hvcurveto
          -115 1 77 -85 120 hhcurveto
          120 98 101 115 -1 hvcurveto
          endchar
        </CharString>
        <CharString name="quotedbl">
          -49 950 753 hstemhm
          198 334 194 334 hintmask 11000000
          240 950 -2 callgsubr
          hintmask 10100000
          570 -753 -2 callgsubr
          endchar
        </CharString>
        <CharString name="quotedblbase">
          -122 -535 -23 callsubr
          171 389 13 callsubr
          296 -535 rmoveto
          hintmask 10100000
          -88 callsubr
          hintmask 00000000
          710 -42 callgsubr
        </CharString>
        <CharString name="quotedblleft">
          -118 1147 -20 12 callgsubr
          303 916 rmoveto
          -65 callgsubr
          hintmask 00000000
          564 hmoveto
          -65 callgsubr
          endchar
        </CharString>
        <CharString name="quotedblright">
          -114 916 -23 callsubr
          179 389 13 callsubr
          296 916 rmoveto
          hintmask 10100000
          -88 callsubr
          hintmask 00000000
          718 -42 callgsubr
        </CharString>
        <CharString name="quoteleft">
          -682 1147 -20 12 callgsubr
          303 916 rmoveto
          -65 callgsubr
          endchar
        </CharString>
        <CharString name="quotereversed">
          -682 916 840 12 callgsubr
          313 916 rmoveto
          154 96 rlineto
          29 vlineto
          -32 41 -25 100 109 vvcurveto
          126 52 87 38 21 vhcurveto
          79 vlineto
          -197 152 rlineto
          -87 -32 -106 -138 -203 vvcurveto
          -281 144 -142 59 -44 vhcurveto
          endchar
        </CharString>
        <CharString name="quoteright">
          -682 916 -23 callsubr
          13 callsubr
          296 916 rmoveto
          hintmask 10100000
          -88 callsubr
          endchar
        </CharString>
        <CharString name="quotesinglbase">
          -682 -538 -23 callsubr
          13 callsubr
          296 -538 rmoveto
          hintmask 10100000
          -88 callsubr
          endchar
        </CharString>
        <CharString name="quotesingle">
          -576 950 753 hstem
          198 334 vstem
          240 950 -2 callgsubr
          endchar
        </CharString>
        <CharString name="r">
          -340 21 -61 callgsubr
          24 -20 34 -20 hstemhm
          153 333 hintmask 00000000
          hintmask 10011000
          153 hmoveto
          -47 callsubr
          hintmask 10101000
          365 vlineto
          hintmask 10011000
          -38 callgsubr
          hintmask 11001000
          -4 callgsubr
        </CharString>
        <CharString name="racute">
          32 callsubr
          519 -21 hstemhm
          153 333 -89 582 hintmask 00010100
          570 1238 -97 callgsubr
          hintmask 00000000
          -244 -1396 rmoveto
          -47 callsubr
          hintmask 10101000
          365 vlineto
          hintmask 11001000
          -38 callgsubr
          hintmask 10101000
          -4 callgsubr
        </CharString>
        <CharString name="radical">
          341 -354 2224 hstem
          99 1606 vstem
          225 294 rmoveto
          167 84 311 -732 rlineto
          317 hlineto
          685 2224 rlineto
          -367 hlineto
          -480 -1794 -214 640 rlineto
          -262 hlineto
          -283 -141 rlineto
          endchar
        </CharString>
        <CharString name="rcaron">
          32 callsubr
          119 483 hstemhm
          129 832 -808 333 hintmask 00011000
          434 1257 -78 callsubr
          hintmask 00000000
          24 -1627 rmoveto
          -47 callsubr
          hintmask 10100100
          365 vlineto
          hintmask 11000100
          -38 callgsubr
          hintmask 10100100
          -4 callgsubr
        </CharString>
        <CharString name="rcommaaccent">
          -340 -40 callsubr
          1144 -20 34 -20 hstemhm
          153 333 -300 327 hintmask 11000010
          186 -104 callsubr
          hintmask 00000000
          -261 84 rmoveto
          -47 callsubr
          hintmask 00101100
          365 vlineto
          hintmask 00110100
          -38 callgsubr
          hintmask 00101100
          -4 callgsubr
        </CharString>
        <CharString name="registered">
          785 83 130 621 157 299 165 255 128 hstem
          171 142 387 225 277 226 349 143 vstem
          171 962 rmoveto
          -487 388 -392 486 486 389 392 487 486 -389 390 -486 -486 -388 -390 -486 vhcurveto
          142 hmoveto
          413 317 335 415 415 317 -335 -413 -414 -317 -335 -415 -415 -317 335 414 vhcurveto
          387 -476 rmoveto
          225 348 hlineto
          23 55 0 1 13 hvcurveto
          94 -41 38 -140 40 -81 19 -36 9 -28 21 -22 rrcurveto
          255 hlineto
          -36 45 -12 24 -18 30 -57 96 -33 120 -102 58 rrcurveto
          146 42 48 130 147 vvcurveto
          159 -121 117 -246 vhcurveto
          -131 -49 -6 -84 hhcurveto
          -97 hlineto
          225 -451 rmoveto
          281 vlineto
          12 36 28 -1 37 hhcurveto
          129 2 47 -51 -91 vvcurveto
          -105 -56 -54 -101 -37 -54 1 6 -29 vhcurveto
          endchar
        </CharString>
        <CharString name="ring">
          -527 1296 169 278 163 hstem
          26 5 callsubr
          vstem
          386 1296 -79 callsubr
          endchar
        </CharString>
        <CharString name="ring.cap">
          -527 1394 170 251 163 hstem
          26 5 callsubr
          vstem
          386 1394 -59 callsubr
        </CharString>
        <CharString name="s">
          -24 callgsubr
          hstem
          104 907 vstem
          107 76 -104 callgsubr
          endchar
        </CharString>
        <CharString name="sacute">
          -24 callgsubr
          500 -21 hstemhm
          104 907 -610 582 hintmask 00101000
          574 1237 -97 callgsubr
          hintmask 11010000
          -294 -1319 -104 callgsubr
          endchar
        </CharString>
        <CharString name="scaron">
          -24 callgsubr
          100 483 hstemhm
          104 907 -878 832 hintmask 00101000
          438 1256 -78 callsubr
          hintmask 11010000
          -26 -1550 -104 callgsubr
          endchar
        </CharString>
        <CharString name="scedilla">
          -222 25 callsubr
          277 -21 27 -21 920 243 hstemhm
          104 907 -552 24 callgsubr
          hintmask 11011000
          107 76 rmoveto
          hintmask 11010100
          54 -34 130 -43 153 -12 10 -25 6 -33 -1 -48 rrcurveto
          -55 callgsubr
          hintmask 10110100
          1 70 -13 86 -27 53 rrcurveto
          215 33 134 121 199 vvcurveto
          177 -104 98 -211 68 vhcurveto
          -179 56 -55 30 60 vvcurveto
          52 1 46 26 128 hhcurveto
          110 123 -51 -36 42 hvcurveto
          33 260 rlineto
          29 -52 -129 41 -186 hhcurveto
          -261 -213 -111 -221 hvcurveto
          -1 -175 85 -116 210 -69 rrcurveto
          155 -51 92 -37 -62 vvcurveto
          -58 -48 -26 -117 1 vhcurveto
          -151 -152 73 28 -34 hvcurveto
          endchar
        </CharString>
        <CharString name="scircumflex">
          -24 callgsubr
          92 484 hstemhm
          104 907 -873 832 hintmask 00101000
          314 1248 -95 callgsubr
          hintmask 11010000
          -31 -1286 -104 callgsubr
          endchar
        </CharString>
        <CharString name="second">
          -107 1190 660 hstemhm
          139 464 45 464 hintmask 11000000
          139 1190 -8 callsubr
          hintmask 10100000
          391 -660 -8 callsubr
          endchar
        </CharString>
        <CharString name="section">
          98 -193 261 1348 257 hstemhm
          176 301 -301 1059 -292 292 hintmask 00000000
          hintmask 11010000
          265 -100 rmoveto
          -43 63 167 -50 192 hhcurveto
          242 249 110 263 99 -34 74 -53 57 hvcurveto
          hintmask 11101000
          87 81 57 97 119 423 -653 10 172 vvcurveto
          78 75 25 94 1 vhcurveto
          164 1 90 -53 42 -31 50 267 rcurveline
          34 -60 -125 39 -193 hhcurveto
          -239 -240 -105 -242 -117 51 -82 73 -64 hvcurveto
          -112 -81 -76 -104 -126 -426 660 17 -165 vvcurveto
          -79 -80 -30 -101 -1 vhcurveto
          -167 -1 -123 61 -50 39 rrcurveto
          162 661 rmoveto
          43 23 45 28 42 vhcurveto
          194 -98 221 -60 -166 vvcurveto
          -29 -11 -37 -16 -37 vhcurveto
          -199 95 -240 40 162 vvcurveto
          endchar
        </CharString>
        <CharString name="semicolon">
          -637 -491 -21 1247 -21 hstemhm
          120 428 -413 430 hintmask 10010000
          135 -41 callsubr
          hintmask 01100000
          -15 743 -25 callsubr
          endchar
        </CharString>
        <CharString name="seven">
          28 928 342 -115 -20 hstemhm
          122 1120 hintmask 00000000
          hintmask 01100000
          284 -292 rmoveto
          366 -102 592 1549 rlineto
          hintmask 10100000
          -81 116 rlineto
          -1039 -342 hlineto
          702 -1 rlineto
          hintmask 01100000
          -81 -198 -331 -756 -128 -266 rrcurveto
          endchar
        </CharString>
        <CharString name="six">
          150 -16 253 525 276 hstem
          118 1220 vstem
          118 623 rmoveto
          -371 250 -268 346 422 202 268 316 275 -177 195 -252 -172 -113 -75 -42 -30 vhcurveto
          68 -192 rlineto
          13 28 35 20 69 hhcurveto
          94 82 -69 -196 -164 -75 -96 -147 -172 -67 187 264 2 hvcurveto
          3 302 201 349 381 95 -84 219 rcurveline
          -364 -45 -530 -377 -608 vvcurveto
          endchar
        </CharString>
        <CharString name="slash">
          -444 -363 1962 hstem
          8 846 vstem
          8 -363 rmoveto
          291 hlineto
          555 1962 rlineto
          -291 hlineto
          endchar
        </CharString>
        <CharString name="space">
          -628 endchar
        </CharString>
        <CharString name="sterling">
          310 -16 238 -209 -21 697 202 354 293 0 -20 hstemhm
          103 1424 hintmask 00000000
          hintmask 01101100
          103 124 rmoveto
          -100 89 -32 71 79 95 54 41 40 vhcurveto
          hintmask 10110100
          -2 120 153 -101 299 hhcurveto
          331 147 155 215 173 -109 77 -44 26 hvcurveto
          -262 -124 rlineto
          29 -19 38 -56 -64 vvcurveto
          -88 -71 -57 -144 -114 -78 30 22 -93 vhcurveto
          66 56 33 102 141 vvcurveto
          116 292 202 -292 73 vlineto
          253 92 28 127 95 86 -48 -33 38 vhcurveto
          146 271 rlineto
          46 -71 -122 57 -195 hhcurveto
          -371 -199 -214 -297 hvcurveto
          -136 -175 -202 175 -139 vlineto
          -79 -6 -133 -29 -27 vhcurveto
          hintmask 01101100
          -126 -5 -140 -65 -117 vvcurveto
          endchar
        </CharString>
        <CharString name="summation">
          197 -170 267 1146 279 -80 80 hstemhm
          147 1186 hintmask 00000000
          hintmask 11010000
          147 -99 rmoveto
          26 -71 rlineto
          1160 267 -660 hlineto
          389 592 -391 554 rlineto
          604 279 -1098 hlineto
          hintmask 10110000
          -30 -80 547 -759 rlineto
          endchar
        </CharString>
        <CharString name="t">
          -380 5 -21 913 243 hstem
          57 845 vstem
          189 355 -86 callgsubr
          endchar
        </CharString>
        <CharString name="tbar">
          -380 5 -21 508 246 159 243 hstem
          57 845 vstem
          189 355 rmoveto
          -248 88 -123 245 166 159 64 52 55 vhcurveto
          -44 206 rlineto
          -24 -35 -81 -21 -51 hhcurveto
          -102 -30 17 213 hvcurveto
          1 298 246 -298 159 296 243 -296 260 -225 vlineto
          -26 -62 -31 -82 -23 -48 -31 -64 -66 -22 -100 -29 rrcurveto
          -196 132 -159 -130 -246 130 vlineto
          endchar
        </CharString>
        <CharString name="tcaron">
          -244 5 -21 913 243 56 737 hstemhm
          51 845 -144 350 hintmask 11010000
          183 355 -86 callgsubr
          hintmask 00000000
          770 299 rmoveto
          hintmask 00101000
          -81 callsubr
        </CharString>
        <CharString name="thorn">
          75 -486 -21 486 249 -228 -21 30 -21 1168 -20 hstemhm
          159 1137 hintmask 00000000
          hintmask 10011100
          528 -12 rmoveto
          hintmask 10101100
          -5 54 56 -4 54 hhcurveto
          366 238 247 386 370 -209 174 -243 -168 -98 -64 -51 -56 hvcurveto
          8 209 rlineto
          411 -371 -2168 374 338 vlineto
          hintmask 11001100
          -3 431 rmoveto
          559 vlineto
          27 35 74 33 78 hhcurveto
          113 80 -65 -226 -1 hvcurveto
          -232 -1 -95 -130 -127 hhcurveto
          -80 -55 10 24 -21 hvcurveto
          endchar
        </CharString>
        <CharString name="three">
          -105 -333 264 1068 281 hstem
          68 1046 vstem
          123 -38 rmoveto
          1 -243 rlineto
          -22 73 107 -30 137 hhcurveto
          405 2 268 210 300 vvcurveto
          149 -92 171 -238 33 vhcurveto
          149 83 102 123 182 vvcurveto
          226 -176 134 -307 -201 -226 -90 -62 -57 vhcurveto
          106 -232 rlineto
          50 70 96 53 136 hhcurveto
          112 71 -54 -97 -3 hvcurveto
          -2 -74 -39 -64 -90 -51 -54 -28 -84 -27 -93 -17 50 -229 rcurveline
          136 32 rlineto
          178 7 60 -95 -121 vvcurveto
          -163 -151 -88 -218 1 vhcurveto
          -68 -84 14 17 -74 hvcurveto
          endchar
        </CharString>
        <CharString name="threequarters">
          1277 21 -21 187 215 194 224 687 221 -198 -20 hstemhm
          107 856 -190 805 414 299 hintmask 01000001
          1422 187 -69 callgsubr
          hintmask 00110100
          -1225 367 -76 callgsubr
          hintmask 10001010
          630 -858 rmoveto
          -12 callgsubr
        </CharString>
        <CharString name="threesuperior">
          -44 596 224 687 221 hstem
          229 856 vstem
          266 648 -76 callgsubr
          endchar
        </CharString>
        <CharString name="tilde">
          -373 1300 -39 callsubr
          8 920 hintmask 00000000
          hintmask 00110000
          141 1333 rmoveto
          hintmask 01010000
          -7 callsubr
          hintmask 10010000
          -27 callgsubr
          hintmask 00110000
          162 111 -73 callsubr
          hintmask 10010000
          -6 callgsubr
          hintmask 01010000
          -66 callsubr
        </CharString>
        <CharString name="tilde.cap">
          -373 1565 -18 callsubr
          16 904 hintmask 00000000
          hintmask 00110000
          149 1599 -56 callgsubr
          hintmask 10010000
          160 109 -73 callsubr
          -46 -33 -60 -59 -70 hhcurveto
          hintmask 01010000
          3 callgsubr
        </CharString>
        <CharString name="trademark">
          920 1330 212 -200 201 hstemhm
          373 24 callgsubr
          hintmask 10100000
          953 767 rmoveto
          245 hlineto
          12 452 rlineto
          hintmask 01100000
          3 123 59 -172 157 -403 rlineto
          175 hlineto
          142 403 52 172 6 -123 32 -452 rlineto
          241 hlineto
          hintmask 10100000
          -70 776 rlineto
          -377 hlineto
          -92 -312 -28 -142 -33 142 -95 312 rlineto
          -386 hlineto
          -623 -776 rmoveto
          242 564 hlineto
          252 -1 rlineto
          213 -739 vlineto
          1 -213 244 1 rlineto
          endchar
        </CharString>
        <CharString name="two">
          112 21 -21 999 293 hstem
          140 1122 vstem
          190 hmoveto
          1072 314 hlineto
          -553 -38 rlineto
          296 176 185 188 249 vvcurveto
          203 -125 200 -382 -251 -202 -119 -85 -83 vhcurveto
          125 -214 rlineto
          66 69 130 59 128 hhcurveto
          143 43 -88 -100 -252 -425 -281 -220 -109 hvcurveto
          endchar
        </CharString>
        <CharString name="twosuperior">
          -54 680 250 567 238 -212 -20 hstemhm
          133 948 29 callsubr
          206 680 -5 callgsubr
          hintmask 11010000
          146 -112 172 -307 vhcurveto
          hintmask 10110000
          18 callsubr
          hintmask 11010000
          -3 callsubr
          endchar
        </CharString>
        <CharString name="u">
          56 -56 callsubr
          hstem
          863 337 vstem
          145 470 -81 callgsubr
        </CharString>
        <CharString name="uacute">
          56 -56 callsubr
          31 callgsubr
          535 582 -254 337 hintmask 00110000
          708 1237 -97 callgsubr
          hintmask 11001000
          -390 -925 -81 callgsubr
        </CharString>
        <CharString name="ubreve">
          56 -56 callsubr
          165 243 hstemhm
          302 770 -209 337 hintmask 11001000
          145 470 -102 callgsubr
          hintmask 00110000
          543 145 -95 callsubr
        </CharString>
        <CharString name="ucircumflex">
          56 -56 callsubr
          128 484 hstemhm
          272 832 -241 337 hintmask 00110000
          448 1248 -95 callgsubr
          hintmask 11001000
          -127 -892 -81 callgsubr
        </CharString>
        <CharString name="udieresis">
          56 -56 callsubr
          160 394 hstemhm
          231 910 -278 337 hintmask 00110000
          938 1280 -98 callgsubr
          hintmask 11001000
          -275 -810 -81 callgsubr
        </CharString>
        <CharString name="ugrave">
          56 -56 callsubr
          31 callgsubr
          232 587 44 337 hintmask 11001000
          145 470 -102 callgsubr
          hintmask 00110000
          505 81 -90 callsubr
        </CharString>
        <CharString name="uhungarumlaut">
          56 -56 callsubr
          598 -21 hstemhm
          296 1041 -474 337 hintmask 11001000
          145 470 -102 callgsubr
          hintmask 00000000
          295 147 -49 callsubr
          hintmask 00110000
          -40 callgsubr
          endchar
        </CharString>
        <CharString name="umacron">
          56 -56 callsubr
          283 238 hstemhm
          377 619 -133 337 hintmask 11001000
          145 470 -102 callgsubr
          hintmask 00110000
          232 263 -27 callsubr
          endchar
        </CharString>
        <CharString name="underscore">
          394 -408 175 hstem
          -36 1772 vstem
          -36 -233 rmoveto
          -175 1772 175 vlineto
          endchar
        </CharString>
        <CharString name="uni0001">
          endchar
        </CharString>
        <CharString name="uni0002">
          endchar
        </CharString>
        <CharString name="uni0003">
          endchar
        </CharString>
        <CharString name="uni0005">
          endchar
        </CharString>
        <CharString name="uni0006">
          endchar
        </CharString>
        <CharString name="uni0007">
          endchar
        </CharString>
        <CharString name="uni0008">
          endchar
        </CharString>
        <CharString name="uni0015">
          endchar
        </CharString>
        <CharString name="uni0016">
          endchar
        </CharString>
        <CharString name="uni0017">
          endchar
        </CharString>
        <CharString name="uni0018">
          endchar
        </CharString>
        <CharString name="uni0019">
          endchar
        </CharString>
        <CharString name="uni0162">
          -53 25 callsubr
          290 23 callsubr
          hstemhm
          30 callsubr
          -697 291 hintmask 00000000
          hintmask 11110000
          337 -42 callsubr
          1 73 -14 91 -30 52 rrcurveto
          92 1228 406 294 -1197 -294 407 -1228 72 hlineto
          13 -27 9 -35 -1 -57 -26 callsubr
        </CharString>
        <CharString name="uni0163">
          -380 25 callsubr
          279 -21 908 243 hstemhm
          57 845 -505 24 callgsubr
          hintmask 11110000
          206 -42 callsubr
          1 68 -12 84 -26 53 135 16 119 51 46 44 -44 206 rcurveline
          -24 -35 -81 -21 -51 hhcurveto
          -102 -30 17 213 hvcurveto
          406 296 243 -296 260 -225 vlineto
          -26 -62 -31 -82 -23 -48 -31 -64 -66 -22 -100 -29 rrcurveto
          -196 132 -542 vlineto
          -190 51 -117 134 -44 vhcurveto
          14 -27 10 -36 -1 -60 -26 callsubr
        </CharString>
        <CharString name="uni0218">
          -77 -39 callgsubr
          520 5 callgsubr
          1 callgsubr
          -691 -1 callsubr
          475 -104 callsubr
          hintmask 00000000
          -573 162 -102 callsubr
          hintmask 00111000
          -70 callsubr
          endchar
        </CharString>
        <CharString name="uni0219">
          -222 -39 callgsubr
          498 248 682 243 hstemhm
          104 907 -636 -1 callsubr
          375 -104 callsubr
          hintmask 00111000
          -496 160 -104 callgsubr
          endchar
        </CharString>
        <CharString name="uni021A">
          -53 -40 callsubr
          1228 294 hstemhm
          30 callsubr
          -739 -1 callsubr
          486 -104 callsubr
          hintmask 00111000
          -279 84 rmoveto
          -48 callsubr
        </CharString>
        <CharString name="uni021B">
          -380 -39 callgsubr
          520 -21 913 243 hstemhm
          57 845 -613 -1 callsubr
          289 -104 callsubr
          hintmask 00111000
          -328 439 -86 callgsubr
          endchar
        </CharString>
        <CharString name="uni02c9">
          -605 1721 246 hstem
          41 619 vstem
          41 1721 rmoveto
          619 246 -619 hlineto
          endchar
        </CharString>
        <CharString name="uni0394">
          -50 callgsubr
        </CharString>
        <CharString name="uni03A9">
          33 callgsubr
          159 1521 vstem
          159 -72 callsubr
        </CharString>
        <CharString name="uni03BC">
          -73 callgsubr
        </CharString>
        <CharString name="uni1E02">
          156 -14 249 -214 -21 660 235 386 256 -14 -20 93 367 -21 callgsubr
          1214 -857 401 hintmask 00000101
          723 1596 -98 callsubr
          hintmask 00000000
          -550 -1596 rmoveto
          192 hlineto
          hintmask 01101010
          -47 callgsubr
          hintmask 10110010
          -185 1 rlineto
          378 -620 rmoveto
          hintmask 01101010
          -9 callsubr
          hintmask 01110010
          -35 -79 1 7 -33 hvcurveto
          hintmask 01101010
          -30 callgsubr
        </CharString>
        <CharString name="uni1E03">
          75 -21 249 928 -20 143 18 callgsubr
          159 1137 -629 427 hintmask 11010000
          -64 callsubr
          hintmask 00101000
          343 1017 -96 callgsubr
        </CharString>
        <CharString name="uni1E0A">
          -32 callgsubr
          1263 275 -16 -20 93 367 -21 callgsubr
          1304 -893 401 hintmask 00000101
          777 1595 -98 callsubr
          hintmask 00000000
          -604 -1595 -68 callsubr
        </CharString>
        <CharString name="uni1E0B">
          75 -16 callsubr
          0 -20 143 18 callgsubr
          226 427 229 339 hintmask 00000000
          hintmask 01010010
          -77 callsubr
          hintmask 10100010
          -76 callsubr
          hintmask 00001100
          -232 1018 -96 callgsubr
        </CharString>
        <CharString name="uni1E1E">
          27 callgsubr
          74 367 -21 callgsubr
          950 -645 401 hintmask 00010100
          671 1596 -98 callsubr
          hintmask 11101000
          -498 -1596 rmoveto
          -5 callsubr
        </CharString>
        <CharString name="uni1E1F">
          -425 -32 callsubr
          -84 18 callgsubr
          51 427 -399 805 hintmask 00011000
          257 1600 rmoveto
          -105 callsubr
          hintmask 11100100
          -35 -1600 -103 callgsubr
          endchar
        </CharString>
        <CharString name="uni1E40">
          676 12 -21 29 -21 1523 -20 93 367 hstemhm
          64 1855 -1111 401 hintmask 00010100
          1001 1595 -98 callsubr
          hintmask 00000000
          -937 -1596 19 callgsubr
          hintmask 01101000
          2 callsubr
          hintmask 10101000
          -35 callsubr
        </CharString>
        <CharString name="uni1E41">
          759 21 -61 callgsubr
          38 -20 140 398 0 callgsubr
          309 427 hintmask 00000000
          hintmask 10101000
          -67 callsubr
          hintmask 11001000
          -36 callsubr
          hintmask 00010100
          857 138 -96 callgsubr
        </CharString>
        <CharString name="uni1E56">
          26 callgsubr
          94 367 -21 callgsubr
          1163 -760 401 hintmask 00001010
          769 1596 -98 callsubr
          hintmask 00000000
          -596 -1596 rmoveto
          -4 callsubr
          hintmask 11010100
          396 -220 141 -367 vhcurveto
          hintmask 11100100
          11 callgsubr
          hintmask 11010100
          -20 callgsubr
          hintmask 11100100
          -62 -51 4 4 -42 hvcurveto
          endchar
        </CharString>
        <CharString name="uni1E57">
          7 callsubr
          142 18 callgsubr
          159 1140 -690 427 hintmask 00000000
          hintmask 10101010
          -31 callgsubr
          hintmask 11010010
          -44 callgsubr
          hintmask 00000101
          285 1003 -96 callgsubr
        </CharString>
        <CharString name="uni1E60">
          -77 5 5 callgsubr
          57 367 1 callgsubr
          -696 401 hintmask 00101000
          663 1595 -98 callsubr
          hintmask 00000000
          -533 -1517 -102 callsubr
          hintmask 11010000
          -70 callsubr
          endchar
        </CharString>
        <CharString name="uni1E61">
          -24 callgsubr
          122 18 callgsubr
          104 907 -679 427 hintmask 11010000
          107 76 -104 callgsubr
          hintmask 00101000
          395 946 -96 callgsubr
        </CharString>
        <CharString name="uni1E6A">
          20 callsubr
          73 367 hstemhm
          30 callsubr
          -794 401 hintmask 00101000
          624 1595 -98 callsubr
          hintmask 11010000
          -189 -1595 rmoveto
          -48 callsubr
        </CharString>
        <CharString name="uni1E6B">
          -380 5 -21 913 243 308 18 callgsubr
          57 845 -680 427 hintmask 11010000
          189 355 -86 callgsubr
          hintmask 00101000
          239 551 -96 callgsubr
        </CharString>
        <CharString name="uni2113">
          81 -27 268 -247 -21 1388 288 hstemhm
          -40 1325 -359 324 21 callgsubr
          -40 192 rmoveto
          274 -159 51 30 51 31 50 32 rlinecurve
          -111 95 124 -42 90 hhcurveto
          388 130 272 138 72 hvcurveto
          -261 101 rlineto
          hintmask 10110000
          -125 -64 -84 -118 -132 hhcurveto
          -56 -38 23 33 -26 hvcurveto
          hintmask 01101000
          366 290 263 352 -3 356 rrcurveto
          230 -2 -118 124 -206 hhcurveto
          -448 -228 -631 -448 -69 6 -62 11 -55 hvcurveto
          hintmask 01110000
          -110 -79 -107 -66 -88 -47 rrcurveto
          hintmask 01101000
          610 442 rmoveto
          347 23 151 380 123 hhcurveto
          50 8 -54 -49 1 hvcurveto
          5 -208 -159 -223 -202 -193 rrcurveto
          endchar
        </CharString>
        <CharString name="uni2215">
          -452 -363 1962 hstem
          -114 1082 vstem
          -114 -363 rmoveto
          307 hlineto
          775 1962 rlineto
          -307 hlineto
          endchar
        </CharString>
        <CharString name="uni2219">
          -635 543 488 hstem
          97 476 vstem
          327 543 rmoveto
          141 106 119 135 -1 hvcurveto
          134 -87 100 -139 -141 -109 -119 -134 vhcurveto
          -134 1 93 -101 136 hhcurveto
          endchar
        </CharString>
        <CharString name="uogonek">
          56 -495 -21 521 -21 25 -21 1152 -20 hstemhm
          863 337 hintmask 00000000
          hintmask 10111000
          145 470 rmoveto
          hintmask 11011000
          -281 52 -205 334 106 145 44 62 81 vhcurveto
          hintmask 10111000
          -48 vlineto
          -34 11 -14 22 -6 vhcurveto
          -110 -60 -107 -100 5 -136 31 callsubr
          131 -77 146 hhcurveto
          113 77 24 43 68 6 callgsubr
          -38 -8 -34 hhcurveto
          -71 -51 23 65 -3 hvcurveto
          hintmask 11011000
          -7 84 73 61 89 50 rrcurveto
          56 1156 -371 -837 hlineto
          -23 -26 -67 -30 -69 hhcurveto
          -102 -49 39 172 hvcurveto
          679 15 callsubr
          endchar
        </CharString>
        <CharString name="uring">
          56 -56 callsubr
          175 169 278 163 hstemhm
          323 5 callsubr
          -187 337 hintmask 00111100
          683 1295 -79 callsubr
          hintmask 11000010
          -541 -994 -81 callgsubr
        </CharString>
        <CharString name="utilde">
          56 -56 callsubr
          179 -39 callsubr
          223 920 -280 337 hintmask 11000010
          145 470 -102 callgsubr
          hintmask 00000000
          211 -59 callgsubr
        </CharString>
        <CharString name="v">
          -103 -56 callsubr
          hstem
          -5 1213 vstem
          427 -16 rmoveto
          354 hlineto
          427 1156 rlineto
          -388 hlineto
          -142 -497 -67 -291 -72 291 -147 497 rlineto
          -397 hlineto
          endchar
        </CharString>
        <CharString name="w">
          477 -56 callsubr
          hstem
          -2 1787 vstem
          353 -16 -91 callsubr
        </CharString>
        <CharString name="wacute">
          477 -56 callsubr
          537 -21 hstemhm
          -2 1787 -1032 582 hintmask 00101000
          926 1238 -97 callgsubr
          hintmask 11010000
          -400 -1412 -91 callsubr
        </CharString>
        <CharString name="wcircumflex">
          477 -56 callsubr
          129 484 hstemhm
          -2 1787 -1296 832 hintmask 00101000
          665 1249 -95 callgsubr
          hintmask 11010000
          -136 -1379 -91 callsubr
        </CharString>
        <CharString name="wdieresis">
          477 -56 callsubr
          161 394 hstemhm
          -2 1787 -1336 910 hintmask 00101000
          1156 1281 -98 callgsubr
          hintmask 11010000
          -285 -1297 -91 callsubr
        </CharString>
        <CharString name="wgrave">
          477 -56 callsubr
          537 -21 hstemhm
          -2 1787 -1336 587 hintmask 11010000
          353 -16 -89 callsubr
          hintmask 00101000
          869 82 -90 callsubr
        </CharString>
        <CharString name="x">
          -68 28 callsubr
          6 1235 vstem
          6 hmoveto
          425 hlineto
          158 279 25 49 30 -49 175 -279 rlineto
          422 hlineto
          -412 582 404 558 rlineto
          -413 hlineto
          -150 -247 -40 -76 -45 76 -158 247 rlineto
          -419 hlineto
          399 -566 rlineto
          endchar
        </CharString>
        <CharString name="y">
          -37 callsubr
          hstem
          -4 1214 vstem
          -99 callgsubr
          endchar
        </CharString>
        <CharString name="yacute">
          -37 callsubr
          31 callgsubr
          -4 1214 -740 582 hintmask 11101000
          -99 callgsubr
          hintmask 00010100
          522 1440 -19 callgsubr
        </CharString>
        <CharString name="ycircumflex">
          -37 callsubr
          128 484 hstemhm
          -4 1214 -1003 832 hintmask 11101000
          -99 callgsubr
          hintmask 00010100
          262 1451 -48 callgsubr
        </CharString>
        <CharString name="ydieresis">
          -37 callsubr
          160 394 hstemhm
          -4 1214 -1044 910 hintmask 11101000
          -99 callgsubr
          hintmask 00010100
          752 1483 -52 callsubr
        </CharString>
        <CharString name="yen">
          273 21 -21 251 209 182 209 671 -20 hstem
          618 343 vstem
          264 251 rmoveto
          354 -251 343 251 344 209 -344 182 344 209 -258 hlineto
          424 671 rlineto
          -392 hlineto
          -204 -366 -74 -164 -74 165 -200 365 rlineto
          -397 hlineto
          424 -671 rlineto
          -290 -209 354 -182 -354 hlineto
          endchar
        </CharString>
        <CharString name="ygrave">
          -37 callsubr
          31 callgsubr
          -4 1214 -1044 587 hintmask 11101000
          -99 callgsubr
          hintmask 00010100
          463 1424 -90 callsubr
        </CharString>
        <CharString name="z">
          -22 callgsubr
          hstemhm
          52 1008 hintmask 00000000
          hintmask 11010000
          94 hmoveto
          -17 callsubr
          hintmask 10110000
          447 693 rlineto
          hintmask 11010000
          -51 callsubr
          endchar
        </CharString>
        <CharString name="zacute">
          -22 callgsubr
          516 -21 hstemhm
          52 1008 -630 582 hintmask 00010100
          603 1237 -97 callgsubr
          hintmask 00000000
          -336 -1395 rmoveto
          -17 callsubr
          hintmask 11001000
          447 693 rlineto
          hintmask 10101000
          -51 callsubr
          endchar
        </CharString>
        <CharString name="zcaron">
          -22 callgsubr
          116 483 hstemhm
          52 1008 -898 832 hintmask 00010100
          467 1256 -78 callsubr
          hintmask 00000000
          -68 -1626 rmoveto
          -17 callsubr
          hintmask 11001000
          447 693 rlineto
          hintmask 10101000
          -51 callsubr
          endchar
        </CharString>
        <CharString name="zdotaccent">
          -22 callgsubr
          138 18 callgsubr
          52 1008 -699 427 hintmask 00000000
          hintmask 11001000
          94 hmoveto
          -17 callsubr
          hintmask 10101000
          447 693 rlineto
          hintmask 11001000
          -51 callsubr
          hintmask 00010100
          515 1195 -96 callgsubr
        </CharString>
        <CharString name="zero">
          132 -16 252 784 251 hstem
          114 1210 vstem
          114 642 rmoveto
          -342 -4 152 -316 448 hhcurveto
          374 236 256 386 4 hvcurveto
          348 3 -137 297 -455 hhcurveto
          -366 -250 -241 -388 -5 hvcurveto
          604 -406 rmoveto
          -160 3 -73 201 211 vvcurveto
          229 82 142 155 -2 vhcurveto
          159 -1 70 -185 -216 vvcurveto
          -242 -78 -143 -155 3 vhcurveto
          endchar
        </CharString>
      <CharString index="0">
        rmoveto
        -370 200 -221 368 204 171 62 61 75 vhcurveto
        -57 197 rlineto
        -30 -55 -141 -28 -110 hhcurveto
        -167 -101 67 170 -17 hvcurveto
        669 hlineto
        7 49 5 78 83 vvcurveto
        366 -3 -233 97 -243 hhcurveto
        -363 -209 -249 -332 hvcurveto
        373 93 rmoveto
        189 19 67 60 105 hhcurveto
        113 40 -83 -166 -9 hvcurveto
        return
      </CharString>
      <CharString index="1">
        372 897 247 243 -247 103 hlineto
        133 57 56 87 71 50 -12 -13 25 vhcurveto
        254 vlineto
        6 -26 -78 17 -116 hhcurveto
        -209 -233 -99 -328 hvcurveto
        -117 vlineto
        -143 -27 rlineto
        -216 143 vlineto
        return
      </CharString>
      <CharString index="2">
        rmoveto
        -327 -4 151 -282 422 hhcurveto
        342 242 197 366 5 hvcurveto
        327 5 -151 282 -422 hhcurveto
        -342 -242 -197 -366 -6 hvcurveto
        577 -354 rmoveto
        -144 -48 155 188 207 49 110 149 144 46 -151 -184 -218 -50 -107 -146 hvcurveto
        return
      </CharString>
      <CharString index="3">
        rmoveto
        -40 64 170 -53 189 hhcurveto
        291 190 126 237 177 -104 98 -211 68 hvcurveto
        -179 56 -55 30 60 vvcurveto
        52 1 46 26 128 hhcurveto
        110 123 -51 -36 42 hvcurveto
        33 260 rlineto
        29 -52 -129 41 -186 hhcurveto
        -261 -213 -111 -221 hvcurveto
        -1 -175 85 -116 210 -69 rrcurveto
        155 -51 92 -37 -62 vvcurveto
        -58 -48 -26 -117 1 vhcurveto
        -151 -152 73 28 -34 hvcurveto
        return
      </CharString>
      <CharString index="4">
        rmoveto
        -106 callgsubr
        return
      </CharString>
      <CharString index="5">
        rmoveto
        -281 52 -205 334 106 145 44 62 81 vhcurveto
        -48 vlineto
        -49 22 -9 47 vhcurveto
        268 1156 -371 -837 hlineto
        -23 -26 -67 -30 -69 hhcurveto
        -102 -49 39 172 hvcurveto
        679 15 callsubr
        return
      </CharString>
      <CharString index="6">
        rmoveto
        -393 -1 172 -261 471 hhcurveto
        439 189 242 406 hvcurveto
        890 -376 -837 vlineto
        -312 -86 -89 -171 -171 -89 81 320 2 vhcurveto
        3 837 rlineto
        -378 hlineto
        return
      </CharString>
      <CharString index="7">
        rmoveto
        89 28 177 172 83 124 -262 130 rcurveline
        -26 -79 -193 -203 -41 -40 rrcurveto
        return
      </CharString>
      <CharString index="8">
        121 -203 rmoveto
        -284 vlineto
        -8 12 127 -12 30 hhcurveto
        60 87 12 20 50 hvcurveto
        145 54 135 121 84 273 359 1167 rcurveline
        -388 hlineto
        -128 -600 -68 -313 -75 313 -164 600 rlineto
        -391 hlineto
        393 -1140 rlineto
        142 hlineto
        -209 -52 -132 -15 -102 hhcurveto
        -34 -68 14 7 -22 hvcurveto
        return
      </CharString>
      <CharString index="9">
        rmoveto
        115 88 94 111 112 -70 77 -116 -114 -92 -93 -111 -111 76 -79 113 hvcurveto
        -518 hmoveto
        115 89 94 111 112 -70 77 -117 -113 -93 -93 -111 -111 76 -79 113 hvcurveto
        return
      </CharString>
      <CharString index="10">
        rmoveto
        90 43 255 204 64 151 -243 189 rcurveline
        -95 -153 -151 -183 -93 -93 rrcurveto
        return
      </CharString>
      <CharString index="11">
        rmoveto
        -105 callsubr
        endchar
      </CharString>
      <CharString index="12">
        rmoveto
        240 227 239 -227 177 114 -304 370 rlineto
        -223 hlineto
        -305 -370 rlineto
        return
      </CharString>
      <CharString index="13">
        -107 callgsubr
        endchar
      </CharString>
      <CharString index="14">
        rmoveto
        248 137 147 222 -2 hvcurveto
        -220 hlineto
        -47 -7 -19 -92 -137 hhcurveto
        -139 -18 92 47 -5 hvcurveto
        -224 hlineto
        -222 -3 128 -147 261 hhcurveto
        return
      </CharString>
      <CharString index="15">
        370 793 hlineto
        48 50 78 26 54 hhcurveto
        108 3 37 -52 -166 vvcurveto
        -652 370 718 vlineto
        328 -115 117 -233 -5 vhcurveto
        -138 -2 -149 -67 -85 -71 rrcurveto
        return
      </CharString>
      <CharString index="16">
        -23 -49 -87 -18 -97 hhcurveto
        -144 -117 82 235 4 hvcurveto
        215 4 132 68 118 hhcurveto
        110 69 -22 -25 44 hvcurveto
        42 278 rlineto
        27 -36 -125 30 -154 hhcurveto
        return
      </CharString>
      <CharString index="17">
        -88 callgsubr
        endchar
      </CharString>
      <CharString index="18">
        189 -75 callgsubr
        return
      </CharString>
      <CharString index="19">
        rmoveto
        368 hlineto
        193 794 43 319 49 -318 195 -795 rlineto
        375 hlineto
        401 1532 rlineto
        -367 hlineto
        -158 -850 -45 -343 -56 343 -207 850 rlineto
        -347 hlineto
        -201 -850 -55 -363 -47 363 -159 850 rlineto
        -382 hlineto
        return
      </CharString>
      <CharString index="20">
        15 callgsubr
        83 -91 123 hhcurveto
        126 96 1 callsubr
        hvcurveto
        120 -78 90 -126 -126 2 callgsubr
        vhcurveto
        return
      </CharString>
      <CharString index="21">
        rmoveto
        -248 88 -123 245 166 159 64 52 55 vhcurveto
        -44 206 rlineto
        -24 -35 -81 -21 -51 hhcurveto
        -102 -30 17 213 hvcurveto
        406 296 243 -296 260 -225 vlineto
        -26 -62 -31 -82 -23 -48 -31 -64 -66 -22 -100 -29 rrcurveto
        -196 132 vlineto
        return
      </CharString>
      <CharString index="22">
        345 658 hlineto
        -47 387 111 -230 493 -815 rlineto
        383 1522 -345 -670 hlineto
        41 -387 -106 222 -519 835 rlineto
        -356 hlineto
        endchar
      </CharString>
      <CharString index="23">
        291 -645 348 451 277 -451 322 585 284 -962 hlineto
        return
      </CharString>
      <CharString index="24">
        380 538 hlineto
        68 53 1 3 43 hvcurveto
        124 -8 35 -245 81 -181 29 -66 9 -21 17 -21 rrcurveto
        420 hlineto
        -63 110 -103 178 -57 232 -122 97 rlinecurve
        148 68 94 136 234 vvcurveto
        return
      </CharString>
      <CharString index="25">
        448 hmoveto
        389 534 hlineto
        505 988 rlineto
        -405 hlineto
        -229 -492 -54 -170 -64 170 -226 492 rlineto
        -417 hlineto
        501 -986 rlineto
        return
      </CharString>
      <CharString index="26">
        -102 callgsubr
        endchar
      </CharString>
      <CharString index="27">
        -32 callgsubr
        675 238 350 275 -16 -20 hstemhm
        60 1417 hintmask 00000000
        hintmask 00110110
        -6 callsubr
        134 hlineto
        117 134 -15 -1 148 hvcurveto
        hintmask 01011010
        488 -2 283 298 519 vvcurveto
        468 -232 271 -515 vhcurveto
        hintmask 10010110
        -143 -198 -16 -76 hhcurveto
        -140 -609 -113 -238 113 hlineto
        383 -395 rmoveto
        395 294 238 -294 vlineto
        hintmask 10011010
        337 -70 callgsubr
        hintmask 10010110
        -68 -68 4 11 -38 hvcurveto
        endchar
      </CharString>
      <CharString index="28">
        -19 hmoveto
        399 hlineto
        80 284 rlineto
        531 hlineto
        84 -284 rlineto
        return
      </CharString>
      <CharString index="29">
        1598 -56 callgsubr
        hintmask 00100010
        160 109 -73 callsubr
        -46 -33 -60 -59 -70 hhcurveto
        hintmask 00010010
        -107 -13 131 -186 hhcurveto
        -164 -113 -116 -116 -31 hvcurveto
        hintmask 11000100
        return
      </CharString>
      <CharString index="30">
        -101 callsubr
        endchar
      </CharString>
      <CharString index="31">
        rmoveto
        -22 70 94 -30 153 hhcurveto
        345 157 159 203 128 -87 98 -152 23 hvcurveto
        133 69 48 87 107 vvcurveto
        138 -122 120 -286 -145 -176 -56 -58 -69 vhcurveto
        69 -189 rlineto
        57 84 114 25 65 hhcurveto
        115 -1 48 -33 1 -57 1 -62 -56 -46 -81 -25 -45 -12 -56 -8 -69 -7 23 -208 rcurveline
        178 28 rlineto
        114 -21 31 -49 -48 vvcurveto
        -78 -67 -59 -162 -1 vhcurveto
        -141 1 -66 21 -64 16 rrcurveto
        return
      </CharString>
      <CharString index="32">
        139 rmoveto
        -105 callsubr
        return
      </CharString>
      <CharString index="33">
        rmoveto
        64 29 153 160 81 125 -258 118 rcurveline
        -35 -79 -143 -187 -41 -40 rrcurveto
        699 -126 rmoveto
        67 29 154 164 78 118 -256 119 rcurveline
        -38 -78 -146 -186 -41 -40 rrcurveto
        endchar
      </CharString>
      <CharString index="34">
        101 3 -21 23 -21 1156 -20 hstemhm
        150 1227 21 callgsubr
        150 -371 rmoveto
        335 hlineto
        -29 415 rlineto
        -44 49 68 -16 91 hhcurveto
        145 71 75 61 33 hvcurveto
        hintmask 10110000
        -95 10 72 -43 101 hhcurveto
        163 104 84 21 14 hvcurveto
        -31 179 rlineto
        -22 -37 -35 -5 -13 hhcurveto
        -22 -27 14 62 hvcurveto
        825 -370 -830 vlineto
        -38 -39 -67 -16 -45 hhcurveto
        -121 -50 71 163 hvcurveto
        650 -370 vlineto
        endchar
      </CharString>
      <CharString index="35">
        159 hmoveto
        371 793 hlineto
        55 55 81 18 46 1 rrcurveto
        100 2 47 -43 -174 vvcurveto
        -652 371 715 vlineto
        305 -113 143 -248 -5 vhcurveto
        -146 -2 -135 -71 -76 -64 18 213 rcurveline
        return
      </CharString>
      <CharString index="36">
        -208 -39 -63 -107 -34 -67 12 10 -16 vhcurveto
        -234 vlineto
        -11 31 97 -15 69 hhcurveto
        270 168 143 446 hvcurveto
        1058 -372 vlineto
        return
      </CharString>
      <CharString index="37">
        vlineto
        6 36 71 7 51 hhcurveto
        249 118 -131 -367 -345 -138 -154 -213 -1 hvcurveto
        return
      </CharString>
      <CharString index="38">
        rmoveto
        571 hlineto
        -1 -265 rlineto
        300 265 152 215 -152 272 -270 hlineto
        -28 -272 rlineto
        -265 hlineto
        43 75 379 610 -240 103 rlineto
        -69 hlineto
        -473 -909 rlineto
        return
      </CharString>
      <CharString index="39">
        372 1140 -372 hlineto
        return
      </CharString>
      <CharString index="40">
        21 -60 callgsubr
        return
      </CharString>
      <CharString index="41">
        rmoveto
        314 hlineto
        40 1190 rlineto
        -407 hlineto
        -13 -1591 rmoveto
        15 callgsubr
        83 -91 122 hhcurveto
        127 95 107 121 120 -78 90 -126 -126 -99 -107 15 callgsubr
        hvcurveto
        return
      </CharString>
      <CharString index="42">
        197 152 rlineto
        79 vlineto
        -38 22 -52 87 126 vvcurveto
        109 25 100 32 41 vhcurveto
        29 vlineto
        -154 95 rlineto
        -59 -43 -144 -142 -281 vvcurveto
        -203 106 -138 87 -33 vhcurveto
        return
      </CharString>
      <CharString index="43">
        hintmask 11010000
        -62 callgsubr
        return
      </CharString>
      <CharString index="44">
        -36 0 291 348 277 322 284 return
      </CharString>
      <CharString index="45">
        93 769 -106 callsubr
        return
      </CharString>
      <CharString index="46">
        -21 1140 -20 return
      </CharString>
      <CharString index="47">
        -21 1522 -20 return
      </CharString>
      <CharString index="48">
        192 rmoveto
        hintmask 00001100
        -7 callsubr
        hintmask 00010100
        -27 callgsubr
        hintmask 00100100
        162 111 -73 callsubr
        hintmask 00001100
        -6 callgsubr
        hintmask 00100100
        -66 callsubr
      </CharString>
      <CharString index="49">
        379 432 hlineto
        138 165 97 -144 93 -156 94 -177 rlinecurve
        34 -63 14 -30 17 -27 rrcurveto
        427 hlineto
        -65 111 -141 240 -208 358 -111 157 rlinecurve
        499 656 rlineto
        -413 hlineto
        -475 -641 rlineto
        641 -379 vlineto
        endchar
      </CharString>
      <CharString index="50">
        154 21 -14 callsubr
        982 -20 return
      </CharString>
      <CharString index="51">
        rmoveto
        44 33 61 56 64 116 18 -134 179 hhcurveto
        return
      </CharString>
      <CharString index="52">
        -14 callgsubr
        -31 -26 3 11 -17 hvcurveto
        -46 callsubr
        145 118 77 171 2 hvcurveto
        return
      </CharString>
      <CharString index="53">
        297 -16 279 989 286 return
      </CharString>
      <CharString index="54">
        -1279 -103 callgsubr
        return
      </CharString>
      <CharString index="55">
        -86 callsubr
        endchar
      </CharString>
      <CharString index="56">
        rmoveto
        333 1009 hlineto
        -174 25 -48 -39 -217 -110 -122 -35 rlinecurve
        40 -197 66 11 65 14 57 18 rlinecurve
        return
      </CharString>
      <CharString index="57">
        319 0 22 -22 290 hstemhm
        78 1466 hintmask 00000000
        hintmask 10100000
        78 22 rmoveto
        14 -22 rlineto
        1436 hlineto
        16 27 -735 1481 rlineto
        -40 hlineto
        hintmask 01100000
        -256 -1218 rmoveto
        270 602 288 -602 rlineto
        endchar
      </CharString>
      <CharString index="58">
        159 18 -158 210 hhcurveto
        181 138 141 82 21 hvcurveto
        -127 162 rlineto
        -42 -41 -58 -62 -98 hhcurveto
        return
      </CharString>
      <CharString index="59">
        -95 callgsubr
        endchar
      </CharString>
      <CharString index="60">
        -5 83 167 -9 141 hhcurveto
        487 144 196 279 193 -133 129 -176 21 hvcurveto
        152 43 76 137 161 vvcurveto
        241 -161 151 -424 vhcurveto
        -155 -104 -15 -104 hhcurveto
        return
      </CharString>
      <CharString index="61">
        -258 -16 284 -263 -21 884 288 0 -20 return
      </CharString>
      <CharString index="62">
        24 -16 255 660 257 return
      </CharString>
      <CharString index="63">
        111 -350 -1646 371 367 vlineto
        414 vmoveto
        546 vlineto
        31 39 77 29 72 hhcurveto
        118 74 -73 -218 -1 hvcurveto
        -231 -1 -91 -125 -130 hhcurveto
        -69 -58 12 29 -30 hvcurveto
        return
      </CharString>
      <CharString index="64">
        -41 81 rlineto
        -1095 -278 620 hlineto
        -67 -98 -625 -1062 rlineto
        return
      </CharString>
      <CharString index="65">
        -96 rmoveto
        hintmask 10010000
        -88 callsubr
        endchar
      </CharString>
      <CharString index="66">
        rmoveto
        664 -417 86 253 -396 306 396 306 -86 253 -664 -417 rlineto
        return
      </CharString>
      <CharString index="67">
        99 49 214 227 67 128 -216 147 rcurveline
        -20 -29 -225 -340 -59 -78 rrcurveto
        return
      </CharString>
      <CharString index="68">
        -539 -21 66 -21 return
      </CharString>
      <CharString index="69">
        10 -15 -35 4 -33 hhcurveto
        -154 -127 -85 -116 -47 hvcurveto
        return
      </CharString>
      <CharString index="70">
        rmoveto
        -16 callgsubr
        hintmask 11001000
        613 1052 rlineto
        hintmask 10101000
        -43 callgsubr
        endchar
      </CharString>
      <CharString index="71">
        hstemhm
        138 1270 return
      </CharString>
      <CharString index="72">
        rmoveto
        -221 157 -128 213 155 156 51 121 108 vhcurveto
        -111 95 146 -61 192 hhcurveto
        202 169 62 61 75 hvcurveto
        return
      </CharString>
      <CharString index="73">
        rmoveto
        -664 417 -86 -253 396 -306 -396 -306 86 -253 return
      </CharString>
      <CharString index="74">
        202 -16 284 306 280 386 298 return
      </CharString>
      <CharString index="75">
        255 -16 281 -260 -21 37 -21 return
      </CharString>
      <CharString index="76">
        526 12 rmoveto
        -15 44 64 -13 81 hhcurveto
        349 235 242 386 370 -211 174 -244 -182 -100 -75 -52 -53 hvcurveto
        return
      </CharString>
      <CharString index="77">
        -645 vmoveto
        394 vlineto
        6 24 100 2 49 hhcurveto
        193 80 -70 -132 -159 -85 -64 -175 -62 -98 6 17 -26 hvcurveto
        endchar
      </CharString>
      <CharString index="78">
        -77 -16 293 -272 5 callgsubr
        return
      </CharString>
      <CharString index="79">
        rmoveto
        619 234 -619 hlineto
        return
      </CharString>
      <CharString index="80">
        119 19 -134 183 hhcurveto
        return
      </CharString>
      <CharString index="81">
        371 1662 -371 hlineto
        return
      </CharString>
      <CharString index="82">
        571 -16 228 -228 266 -245 -21 503 181 -140 178 188 266 -243 239 4 -20 return
      </CharString>
      <CharString index="83">
        -222 -17 248 682 243 return
      </CharString>
      <CharString index="84">
        79 -222 rlineto
        30 50 156 51 127 hhcurveto
        139 65 -33 -94 hvcurveto
        -61 vlineto
        -134 -182 -13 -58 -132 hvcurveto
        return
      </CharString>
      <CharString index="85">
        -196 0 260 628 252 -95 95 return
      </CharString>
      <CharString index="86">
        hstemhm
        173 return
      </CharString>
      <CharString index="87">
        541 vlineto
        43 7 57 3 47 1 rrcurveto
        179 5 82 -109 -165 vvcurveto
        -213 -110 -78 -143 vhcurveto
        return
      </CharString>
      <CharString index="88">
        -97 callgsubr
        endchar
      </CharString>
      <CharString index="89">
        164 21 -2 callsubr
        return
      </CharString>
      <CharString index="90">
        -4 0 284 960 278 -81 81 return
      </CharString>
      <CharString index="91">
        1128 284 -649 hlineto
        74 105 rlineto
        return
      </CharString>
      <CharString index="92">
        692 11 -21 1532 -20 return
      </CharString>
      <CharString index="93">
        -99 -1 -51 -51 -65 hhcurveto
        return
      </CharString>
      <CharString index="94">
        88 50 26 43 18 vhcurveto
        41 18 68 16 83 1 4 -85 16 -77 26 -67 rrcurveto
        -51 -38 -78 -36 -69 hhcurveto
        return
      </CharString>
      <CharString index="95">
        -8 callgsubr
        endchar
      </CharString>
      <CharString index="96">
        hstemhm
        93 1416 return
      </CharString>
      <CharString index="97">
        -21 callgsubr
        1022 return
      </CharString>
      <CharString index="98">
        31 callsubr
        131 -55 callsubr
        return
      </CharString>
      <CharString index="99">
        263 hlineto
        542 1530 rlineto
        -266 hlineto
        return
      </CharString>
      <CharString index="100">
        74 21 24 callsubr
        return
      </CharString>
      <CharString index="101">
        -46 -34 -62 -60 -71 hhcurveto
        return
      </CharString>
      <CharString index="102">
        rmoveto
        875 262 hlineto
        -454 -24 rlineto
        241 137 161 159 203 vvcurveto
        return
      </CharString>
      <CharString index="103">
        -16 183 rlineto
        -325 hlineto
        endchar
      </CharString>
      <CharString index="104">
        189 18 67 60 104 hhcurveto
        112 41 -83 -166 -9 hvcurveto
        -987 -307 rmoveto
        return
      </CharString>
      <CharString index="105">
        rmoveto
        251 hlineto
        41 753 rlineto
        -334 hlineto
        return
      </CharString>
      <CharString index="106">
        382 -298 101 -269 vhcurveto
        return
      </CharString>
      <CharString index="107">
        hstemhm
        163 342 return
      </CharString>
      <CharString index="108">
        hstemhm
        119 1047 return
      </CharString>
      <CharString index="109">
        -98 -107 -120 return
      </CharString>
      <CharString index="110">
        -107 -13 131 -186 hhcurveto
        -164 -113 -116 -116 -31 hvcurveto
        endchar
      </CharString>
      <CharString index="111">
        281 -281 437 -279 279 return
      </CharString>
      <CharString index="112">
        -21 1278 276 return
      </CharString>
      <CharString index="113">
        -10 callsubr
        -37 return
      </CharString>
      <CharString index="114">
        hstemhm
        85 1039 return
      </CharString>
      <CharString index="115">
        -68 callgsubr
        endchar
      </CharString>
      <CharString index="116">
        -67 callgsubr
        hstem
        return
      </CharString>
      <CharString index="117">
        196 1 -137 return
      </CharString>
      <CharString index="118">
        -152 -136 -16 -140 hhcurveto
        -148 hlineto
        382 -802 rmoveto
        return
      </CharString>
      <CharString index="119">
        hstemhm
        110 300 13 callsubr
        return
      </CharString>
      <CharString index="120">
        -184 0 287 1235 -20 return
      </CharString>
      <CharString index="121">
        522 hintmask 00101000
        return
      </CharString>
      <CharString index="122">
        -120 1 return
      </CharString>
      <CharString index="123">
        664 0 291 27 261 63 277 319 284 return
      </CharString>
      <CharString index="124">
        536 -21 return
      </CharString>
      <CharString index="125">
        398 hstemhm
        return
      </CharString>
      <CharString index="126">
        rmoveto
        352 1 60 809 26 438 100 -450 rlineto
        return
      </CharString>
      <CharString index="127">
        -62 -943 rmoveto
        326 755 rlineto
        -755 vlineto
        endchar
      </CharString>
      <CharString index="128">
        hintmask 00000000
        hintmask 01110000
        return
      </CharString>
      <CharString index="129">
        -21 -11 callgsubr
        return
      </CharString>
      <CharString index="130">
        -21 callgsubr
        1285 return
      </CharString>
      <CharString index="131">
        242 hintmask 00000000
        return
      </CharString>
      <CharString index="132">
        hstemhm
        85 1177 return
      </CharString>
      <CharString index="133">
        86 21 -21 439 273 560 266 -16 -20 return
      </CharString>
      <CharString index="134">
        -143 21 -21 592 283 363 284 return
      </CharString>
      <CharString index="135">
        -507 238 -217 -21 return
      </CharString>
      <CharString index="136">
        -21 hstem
        120 428 vstem
        return
      </CharString>
      <CharString index="137">
        hstemhm
        85 910 return
      </CharString>
      <CharString index="138">
        17 callgsubr
        hstemhm
        return
      </CharString>
      <CharString index="139">
        163 hmoveto
        370 793 hlineto
        48 50 return
      </CharString>
      <CharString index="140">
        523 0 251 1031 263 hstem
        return
      </CharString>
</ttFont>
